<?xml version="1.0" encoding="utf-8"?>
<!-- Generator: Adobe Illustrator 21.1.0, SVG Export Plug-In . SVG Version: 6.00 Build 0)  -->
<svg version="1.1" id="Calque_1" xmlns="http://www.w3.org/2000/svg" xmlns:xlink="http://www.w3.org/1999/xlink" x="0px" y="0px"
	 viewBox="0 0 218 240" style="enable-background:new 0 0 218 240;" xml:space="preserve">
<style type="text/css">
	.st0{fill:#30343F;}
</style>
<path class="st0" d="M208.9,23.5c0,0,0,0-0.1,0.1c-0.1,0.1-0.2,0.1-0.4,0.1l-2.3,0.6l-1.7,0.3h-0.6c-0.2,0.2-0.8,0.3-1.7,0.3h-0.3
	h-0.6l-0.6,0.3l-5.8,0.6l-4,0.6l-3.8,0.3l-4.9,0.6c-1.4,0-2.4,0.1-3.2,0.3l-8.4,1.7l-9.2,1.7l-12.4,2.6l-2,0.6c0,0.2-0.2,0.9-0.6,2
	c-0.2,0.4-0.7,0.8-1.4,1.2l-0.6,0.6c-0.6,0.8-0.9,1.5-0.9,2.3l-0.3,0.6c-0.8,2.1-2.3,5.1-4.6,9l-8.7,15.3l-2.3,4l-0.6,1.2
	c-0.4,0.4-0.6,0.7-0.6,0.9c-0.2,0.2-0.3,0.4-0.3,0.6c0,0.2-0.1,0.3-0.3,0.3v0.3l-0.6,0.6c-0.8,1.2-1.3,2.1-1.4,2.9l-0.3,0.3
	l-0.3,0.9c-0.4,0.4-0.6,0.9-0.6,1.4l-0.9,0.9l-1.4,2.6l-0.9,2l-5.8,10.7l-1.7,2.9c0,0.2-0.1,0.3-0.3,0.3h18.2h3.2
	c0,0.4,0.3,0.5,0.9,0.3h0.6v-0.3h0.9h2H137h0.6h0.3h1.2v-0.3h0.9c0,0.2-0.1,0.3-0.3,0.3h1.2h0.6h0.9c0.4,0,0.7-0.1,0.9-0.3h0.3
	l-0.3,0.3c1.7,0,2.8-0.1,3.2-0.3h-0.3c0-0.2,0.2-0.3,0.6-0.3c0.4,0.4,0.7,0.6,0.9,0.6h2c1.2,0,2,0.2,2.6,0.6l0.3-0.3
	c0,0.2,0.1,0.3,0.3,0.3c-0.2,0-0.3,0.1-0.3,0.3l0.6,1.2V99c0.2,0.4,0.3,0.9,0.3,1.4l0.3,0.9c-0.2,0.6,0,1.1,0.6,1.4l-0.3,0.3
	l-0.3,0.6l-0.3-0.3c0.2,0,0.3-0.1,0.3-0.3h-0.3v0.3c0,0.2,0.1,0.3,0.3,0.3c-0.4,0-0.6,0.2-0.6,0.6c0,0.2-0.1,0.3-0.3,0.3h-0.3v0.3
	c0.4,0,0.6,0.2,0.6,0.6l-0.3,0.3l-0.6,0.6c0.4,0,0.6-0.1,0.6-0.3h0.6l-0.3-0.6c0.2,0,0.3-0.2,0.3-0.6c0.2,0,0.3-0.1,0.3-0.3v0.3
	c0,0.6-0.1,1.1-0.3,1.4l-0.3,1.7c-0.2-0.2-0.2-0.4,0-0.6l-0.6,0.3l-0.3-0.3l-0.3,0.6l0.6,0.3l0.6-0.3l-0.6,1.2l-0.6,1.2
	c-0.2,0-0.3,0.1-0.3,0.3h0.3c0,0.2-0.1,0.3-0.3,0.3c0,0.6-0.1,1-0.3,1.2v-0.3h-0.6c-0.4,0-0.6,0.2-0.6,0.6h0.3v0.3
	c0.2,0,0.3-0.2,0.3-0.6h0.6c-0.4,0.4-0.6,0.7-0.6,0.9l-0.3,0.6c0-0.2-0.2-0.5-0.6-0.9v0.6l0.6,0.3H150v0.3h-0.6h-0.3v0.3
	c0,0.2-0.1,0.3-0.3,0.3v0.3c-0.2-0.2-0.3-0.1-0.3,0.3l0.3-0.3c0,0.4-0.1,0.6-0.3,0.6c-0.2,0.2-0.2,0.4,0,0.6l-0.3,0.3l-1.7,1.7
	l-2.3,1.2l-0.6,0.3l-0.6,0.3c-1.2,0.6-1.9,0.9-2.3,0.9c-0.8,0.4-1.4,0.6-1.7,0.6l-2.9,0.9l-5.8,1.4h-0.9c-1.4,0.4-2.7,0.8-3.9,1.2
	c-1.3,0.4-2.4,0.7-3.3,0.9c-3.1,0.8-5.4,1.3-6.9,1.4c-2.7,0.4-4.6,0.8-5.8,1.2l-7.8,1.7l-9,2c-1.5,0.4-2.6,0.6-3.2,0.6
	c-0.6,0-1-0.1-1.2-0.3l-0.9,2l-0.9,1.7c-0.4,1.2-0.8,1.9-1.2,2.3l-0.3,0.6l-0.9,2.3c-0.2,0.2-0.6,0.9-1.2,2
	c-0.2,0.6-0.4,1.2-0.6,1.7c-0.2,0.6-0.4,1.2-0.6,1.7l-1.2,2.3l-3.5,7.2l-0.6,1.2v-0.3c0,0.2-0.1,0.3-0.3,0.3c0,0.4-0.2,0.8-0.6,1.2
	l-0.3,0.6c-0.8,1.2-1.3,2.1-1.4,2.9l-0.6,0.9c-0.2,0.2-0.4,0.4-0.6,0.7c-0.2,0.3-0.3,0.6-0.3,1l-0.3,0.6c-0.4,0.4-0.7,0.8-0.9,1.3
	c-0.2,0.5-0.4,0.9-0.6,1.3v0.3l-1.2,1.7c-0.2,0.6-0.7,1.4-1.4,2.6v0.6c-1,1.4-1.4,2.1-1.4,2.3c-0.4,0.4-0.6,0.7-0.6,0.9
	c-0.2,0.2-0.3,0.5-0.4,0.9c-0.1,0.4-0.3,0.7-0.7,0.9l-2.3,4l-1.4,2.6l-0.9,1.7l-2.3,3.8l-2,3.2l-1.2,1.7c-1.4,1.9-2.1,3-2.3,3.2
	l-1.7,2.3l-1.4,1.7l-1.7,2.9c-0.8,0.8-1.3,1.4-1.4,2l-1.2,1.2v0.3c-0.4,0.4-0.6,0.7-0.6,0.9l-1.2,1.2l-2.3,3.5l-1.2,1.2l-1.2,1.7
	l-1.2,1.2c-0.2,0.6-0.6,1-1.2,1.2l-1.7,2l-2.3,2.6l-1.7,2l-2,2c-0.8,0.8-1.4,1.3-1.7,1.4v0.3c-0.8,0.4-1.7,1.2-2.9,2.3l-2.3,1.7
	l-0.9,0.6l-1.2,0.6l-3.2,1.7l-0.6,0.3l-2.3,0.9l-2.3,0.3c-0.6,0.2-1.3,0.3-2.3,0.3c-0.8,0-1.4-0.1-2-0.3l-2.3-0.3
	c-0.2,0-0.7-0.2-1.4-0.6l-1.2-0.3v-0.9c0-0.2-0.1-0.3-0.3-0.3l0.3-0.9l0.3-2.9c0-0.8,0.2-2.1,0.6-4l0.3-2v-0.3c1.7-4,3.6-9.1,5.5-15
	v-0.6c0.2-0.8,0.6-1.4,1.2-2v-0.3l18.5-36.4l7.5-14.2c6.7-12.7,14.1-27.3,22-43.6c5.2-8.9,9.5-17.1,13-24.9l3.5-7.2
	c2.7-5.2,4.1-8.2,4.3-9c3.1-5,5.3-8.8,6.6-11.3V60l4.9-8.1c4.2-7.3,7.5-12.8,9.8-16.5l0.3-0.6l-0.6-0.3l-3.2-1.7
	c-1-0.4-2.4-1.2-4.3-2.3c-1.9-1.9-3.2-3.6-3.8-4.9l-0.3-0.9c0-2.1-0.2-3.8-0.6-4.9l-1.2-4.9c-0.2-0.8-0.3-1.8-0.3-3.2
	c0-1.5,0.1-2.6,0.3-3.2c0.2-0.6,0.1-1.1-0.3-1.4c-0.2-0.6-0.2-1,0-1.2V4.7c0-0.8,0.3-1.6,0.9-2.5c0.6-0.9,1.3-1.4,2-1.6
	c0.4,0,1.1-0.1,2.2-0.4c1.1-0.3,2.1-0.2,3,0.1h1.2c0.6-0.2,1.5-0.3,2.9-0.3l0.6-0.3h0.3L99.1,1c0.2,0.2,0.4,0.2,0.7,0.1
	c0.3-0.1,0.5,0,0.7,0.1h-0.3c0.4,0.2,1.1,0.3,2,0.3l0.6-0.3h0.9c0.4,0.2,0.9,0.3,1.4,0.3l-0.3-0.3c0.4-0.2,0.7-0.2,1-0.1
	c0.3,0.1,0.5,0.1,0.7,0.1h2.9h0.3c0.2-0.4,0.6-0.6,1.2-0.6h2V1l0.6-0.3c0.8-0.4,1.6-0.6,2.6-0.6h8.4c1.5,0,2.7,0.1,3.5,0.3l3.8,0.3
	c0.2,0,0.3,0.1,0.3,0.3h0.6h0.6c2.9,0.2,7.1,0.3,12.7,0.3h44.5c2.3,0,4,0.1,5.2,0.3h7.8c0.6,0.2,1.6,0.3,3.2,0.3
	c1.2,0,2,0.1,2.6,0.3h2.6c1,0.2,2.3,0.3,4,0.3c1.2,2.3,1.7,4.6,1.7,6.9c0,1.7-0.3,3.5-0.9,5.2c-0.4,1.4-1.2,3.2-2.3,5.5
	c-0.2,0.2-0.6,0.3-1.2,0.3c0,0.2-0.1,0.3-0.3,0.3l-2.6,0.6c-0.2-0.4-0.5-0.4-0.9,0h0.9c-0.4,0-0.7,0.1-0.9,0.3h-0.6
	c-0.2-0.4-0.5-0.4-0.9,0c-0.2,0.2-0.6,0.3-1.2,0.3c-0.4,0.2-1,0.3-1.7,0.3c0,0.2,0,0.4,0,0.6c0,0.2,0.1,0.4,0.3,0.6
	c0-0.2,0.1-0.3,0.4-0.3c0.3,0,0.4-0.1,0.4-0.3c0.2,0,0.4,0,0.6-0.1c0.2-0.1,0.5,0,0.9,0.1c0-0.2-0.1-0.3-0.3-0.3
	c-0.2,0-0.3-0.1-0.3-0.3h0.9l0.6,0.3h0.6c0.6,0,1-0.1,1.2-0.3v-0.6l1.2-0.3c0.6,0.4,1.2,0.3,1.7-0.3h0.6l-0.6,0.6h0.3l-1.2,1.7h-0.3
	c-0.4,0-0.9,0.1-1.4,0.3c-0.6,0.2-1.1,0.3-1.4,0.3C209,23.6,208.9,23.5,208.9,23.5z M43,207.7l-0.6,1.2C42.8,208.4,43,208,43,207.7z
	 M46.5,203.6c0,0,0-0.1,0-0.3h-0.3l-0.3,0.6c-0.2,0-0.3,0.1-0.3,0.3l-0.3,0.6c-0.2,0-0.3-0.1-0.3-0.3c-0.2,0-0.2,0.1,0,0.3v0.3
	l-0.9,0.9l-0.6,0.9c-0.2,0-0.3,0.2-0.3,0.6v0.3l1.4-2c0.2,0,0.3-0.2,0.3-0.6l0.9-0.9C46.3,203.8,46.5,203.6,46.5,203.6z M46.8,205.6
	c0,0,0-0.1,0-0.3h-0.3v0.3C46.7,205.6,46.8,205.6,46.8,205.6z M47.1,202.2l-0.3,0.6v0.3c0.2,0,0.3-0.1,0.3-0.3V202.2z M47.7,200.1
	v-0.3h-0.3C47.4,200,47.5,200.1,47.7,200.1z M54.6,191.5c-0.2,0.4-0.4,0.7-0.6,1c-0.2,0.3-0.4,0.6-0.6,1c-0.2,0-0.3,0.1-0.3,0.3
	l-0.9,1.4c-0.4,0.4-0.6,0.8-0.6,1.2l-0.6,0.3c-0.4,0.4-0.6,0.7-0.7,1c-0.1,0.3-0.2,0.5-0.4,0.7h-0.6h0.3l-0.3,0.6v-0.3l-0.6,0.6h0.3
	c0,0.2-0.2,0.5-0.6,0.9l-0.9,1.2v0.3c0.4-0.2,0.8-0.7,1.2-1.4l0.9-1.2c1-1,1.6-1.8,2-2.6l0.9-1.2l0.9-1.7l0.9-0.9L54.6,191.5z
	 M48.8,202.4c-0.2,0-0.3,0.2-0.3,0.6L48.8,202.4z M51,194.8c-0.1,0.1,0,0.1,0.1,0.1v-0.3C51.1,194.6,51.1,194.7,51,194.8z
	 M56.3,189.2l-0.3,0.3c0,0.2-0.1,0.3-0.3,0.3c-0.2-0.2-0.3-0.1-0.3,0.3c-0.2,0.2-0.3,0.5-0.3,0.9l-0.3,0.3h0.3v-0.3
	c0.4-0.4,0.6-0.8,0.6-1.2H56L56.3,189.2z M59.8,183.9c-0.4,0-0.6,0.2-0.6,0.6C59.6,184.1,59.8,183.9,59.8,183.9z M60.7,182.5
	c-0.4,0-0.6,0.2-0.6,0.6l-0.3,0.3h0.3C60.1,183.2,60.3,182.9,60.7,182.5z M60.1,182.2c0.2,0,0.3-0.1,0.3-0.3h-0.3V182.2z
	 M80.3,145.2l-1.2,2l-0.9,1.2c0,0.6-0.1,1-0.3,1.2l-0.6,1.2c-0.4,0.6-0.7,1.1-0.9,1.4c-0.2,0.4-0.3,0.7-0.3,0.9l-0.9,1.4l-0.9,1.7
	c-0.4,1-0.9,1.6-1.4,2c0,0.4-0.1,0.6-0.3,0.6c-0.2,0.2-0.3,0.5-0.3,0.9v0.3c-0.2,0-0.5,0.5-0.9,1.4h-0.3c0,0.6-0.4,1.3-1.2,2
	c0,0.2-0.1,0.2-0.3,0h-0.3c0.2,0,0.3-0.1,0.3-0.3c0.2,0,0.3-0.1,0.3-0.3h0.3l0.3-0.9c0.2-0.2,0.2-0.4,0-0.6c0.2,0,0.3-0.1,0.3-0.3
	c0.2-0.2,0.3-0.5,0.3-0.9l0.3-0.6l0.6-0.6l0.3-0.6v-0.3c-0.6,0.6-0.9,1.1-0.9,1.4c0,0.2-0.1,0.3-0.3,0.3l-0.6,0.6l-0.3,1.2
	c-0.4,0.4-1.1,1.6-2,3.8v0.3l-0.3,0.3l-0.3,0.9c-0.2,0-0.3,0.1-0.3,0.3l-0.9,1.2l-0.6,1.2v0.3c0.2,0,0.3-0.1,0.3-0.3l1.2-1.2v0.3
	c0,0.4-0.1,0.7-0.3,1c-0.2,0.3-0.3,0.5-0.3,0.7c-0.4,0.4-0.6,0.7-0.6,0.9c-0.2,0-0.3,0.1-0.3,0.3c0,0.2-0.1,0.3-0.3,0.3
	c-0.4,0.4-0.6,0.8-0.6,1.2c0,0.4-0.1,0.7-0.3,0.9l-0.3,0.6v0.6l-0.6,0.9c-0.4,0.4-0.6,0.8-0.6,1.2l-0.9,0.9c0,0.2-0.1,0.3-0.3,0.3
	c0.2,0,0.1,0.2-0.3,0.6c0.2,0.2,0.2,0.3,0.1,0.4c-0.1,0.1-0.1,0.2-0.1,0.4c-0.2,0-0.3,0.1-0.3,0.3l-0.9,1.4v0.3l-0.3,0.6
	c0-0.2,0.1-0.3,0.3-0.3c0.4-0.8,0.8-1.3,1.2-1.7l0.3-1.2l2-3.2l1.7-2.9l0.9-1.2l0.9-2c0.2-0.4,1-1.7,2.3-4l0.3-0.9l1.4-2.9l4-7.2
	l0.6-1.7l0.3-0.6c0-0.2,0.1-0.3,0.3-0.3l2-4.3l1.2-2.3V145.2z M62.4,177v-0.3l0.3-0.3c0.4-0.2,0.6-0.5,0.6-0.9v-0.3l0.3-0.6l0.9-1.4
	c-0.8,0.4-1.1,0.9-0.9,1.4L63,175C63,175.2,62.8,175.9,62.4,177z M63,174.4c0,0,0,0.1,0,0.3h0.3v-0.3C63.1,174.4,63,174.4,63,174.4z
	 M63.5,179.6l-0.6,0.9C63.4,180.1,63.5,179.8,63.5,179.6z M64.4,171.8l0.3,0.6c0.2,0,0.3-0.1,0.3-0.3v-0.3l0.9-0.6v-0.3v-0.3v-0.3
	l-0.6,0.3L64.4,171.8z M65.9,175.6l-0.6,0.6h0.3L65.9,175.6z M65.6,176.7c0,0,0.1-0.2,0.3-0.6l-0.6,0.6
	C65.5,176.7,65.6,176.7,65.6,176.7z M65.6,170.1h0.3v-0.3h-0.3V170.1z M66.7,174.1c0,0,0-0.2,0-0.6c-0.4,0.4-0.5,0.7-0.3,0.9
	c-0.2,0-0.3,0.2-0.3,0.6c-0.2,0-0.3,0.1-0.3,0.3h0.3v0.6c0-0.4,0.1-0.6,0.3-0.6V175l-0.3,0.3V175c0.2,0,0.2,0,0.1-0.1
	c-0.1-0.1,0-0.2,0.1-0.4C66.6,174.2,66.7,174.1,66.7,174.1z M75.1,157.9c0,0.2-0.1,0.3-0.3,0.3l-0.3,0.6l-0.3,0.6l-0.6,0.6v-0.3
	c0,0.2-0.1,0.3-0.3,0.3h0.3l-0.3,0.6v-0.3l-0.3,0.6c0-0.2,0.1-0.3,0.3-0.3v0.3l-1.2,2c0,0.2-0.1,0.3-0.3,0.3c-0.2,0-0.3,0.1-0.3,0.3
	h0.3v0.3h-0.3l-0.3,0.9l-0.3,0.3c-0.2,0.8-0.7,1.7-1.4,2.9l-0.6,1.2l-0.6,1.2c-0.2,0.2-0.3,0.5-0.3,0.9l-0.9,1.4v0.3H67v0.6h0.3
	c0.2,0,0.3-0.1,0.3-0.3c0-0.2-0.1-0.3-0.3-0.3l0.3-0.3c0-0.2,0.2-0.5,0.6-0.9l0.3-0.6v0.6c0.4-0.2,0.6-0.7,0.6-1.4l0.3-0.3
	c0.2,0,0.3-0.2,0.3-0.6v-0.3c0-0.4,0.1-0.6,0.3-0.6c0.2,0.2,0.3,0.2,0.3,0h-0.3l-0.3-0.6c0.4,0,0.6-0.1,0.6-0.3l0.9-1.4h0.3l0.6-1.2
	l0.3-1.2c0,0.2,0.2,0.3,0.6,0.3l-0.3-0.3v-0.6l0.6,0.3l0.3-0.9h-0.6c0.4-0.4,0.7-0.9,0.9-1.4c0.2-0.6,0.5-1.1,0.9-1.4
	c0-0.2,0.2-0.7,0.6-1.4V157.9z M75.7,157.4c0,0,0-0.2,0-0.6c-0.2,0-0.3,0.1-0.3,0.3c0,0.2-0.1,0.3-0.3,0.3
	C75.5,157.4,75.7,157.4,75.7,157.4z M76.6,155.6c-0.2-0.2-0.3-0.2-0.3,0H76.6z M84.1,139.4l-0.3-0.3v0.3H84.1z M85.2,136.5
	c0,0.2-0.1,0.4-0.4,0.7c-0.3,0.3-0.3,0.5-0.1,0.7l0.6-1.2V136.5z M85.8,136c0,0,0-0.1,0-0.3c-0.2,0-0.3,0.1-0.3,0.3
	C85.7,136,85.8,136,85.8,136z M109.8,97.5c0,0,0-0.2,0-0.6l-0.6,0.6C109.6,97.5,109.8,97.5,109.8,97.5z M110.1,96.7c0,0,0-0.1,0-0.3
	c0,0.2-0.1,0.3-0.3,0.3C110,96.7,110.1,96.7,110.1,96.7z M117.3,85.4l-0.6,0.6c-0.2,0.4-0.7,1.3-1.4,2.6l-0.3,0.6
	c0,0.6-0.4,1.3-1.2,2l0.9-1.4v-0.6l-0.3,0.6l-0.6,1.2l-0.3,0.6c-0.4,0.4-0.6,0.7-0.6,0.9c0,0.2-0.1,0.3-0.3,0.3l-0.3,0.9l-0.6,0.9
	l-0.9,1.7h0.3c0,0.2-0.2,0.5-0.6,0.9c-0.2,0-0.3,0-0.4,0.1c-0.1,0.1,0,0.2,0.1,0.4c0-0.4,0.1-0.6,0.3-0.6l-0.3,0.9h0.6v-0.3
	c0.4-0.8,0.8-1.3,1.2-1.7v-0.3l0.3-0.6l0.6-0.9h0.3l0.3-0.6c0-0.6,0.2-1.1,0.6-1.4c0-0.2,0.1-0.3,0.3-0.3h-0.3l0.3-0.6
	c0.2,0,0.3-0.1,0.3-0.3l0.6-1.2l1.2-2.3c0.2-0.2,0.3-0.5,0.3-0.9l0.6-0.9V85.4z M110.4,95.8c0.2,0,0.3-0.1,0.3-0.3
	c0-0.2,0.1-0.3,0.3-0.3l0.3-0.9c-0.2,0-0.3,0.1-0.3,0.3c0,0.2-0.1,0.3-0.3,0.3C110.7,95.3,110.6,95.6,110.4,95.8z M111.5,93.2
	c0,0,0,0.1,0,0.3c0.2,0,0.3-0.1,0.3-0.3C111.6,93.2,111.5,93.2,111.5,93.2z M112.1,92.6l0.6-0.6C112.7,92,112.5,92.2,112.1,92.6z
	 M115.6,87.7c0.4,0,0.6-0.3,0.6-0.9C115.8,87.2,115.6,87.5,115.6,87.7z M116.7,85.4c0.2,0,0.3-0.2,0.3-0.6L116.7,85.4z M117.9,84.2
	c0,0.2-0.1,0.3-0.3,0.3h0.3V84.2z M118.5,83.1c0,0,0.1,0,0.3,0H118.5v0.3C118.5,83.2,118.5,83.1,118.5,83.1z M121.4,77.9l-0.3,0.6
	C121.3,78.4,121.4,78.3,121.4,77.9z M121.9,77.3l-0.3,0.3h0.3V77.3z M128,65.7l-0.3,0.3h0.3V65.7z M128,100.4h0.6
	C128.2,100.4,128,100.4,128,100.4z M132.3,98.7h1.2c0.2,0,0.3,0,0.4,0.1c0.1,0.1,0.2,0,0.4-0.1C134.2,98.5,133.5,98.5,132.3,98.7z
	 M134.9,98.7c0.4,0,0.7-0.1,0.9-0.3h-0.9V98.7z M134.9,99.5h0.3v-0.3h-0.3V99.5z M136.1,99.3h-0.3v0.3h0.3V99.3z M137.5,99.8
	l4.3-0.3H139v-0.3h0.6c-0.6-0.4-1.2-0.4-1.7,0h-0.3v0.3V99.8z M140.7,98.4h0.6v-0.3h-0.6V98.4z M143.3,98.1c1.9,0.4,3.3,0.4,4,0
	c-0.2-0.2-0.4-0.2-0.6-0.1c-0.2,0.1-0.4,0.1-0.6,0.1H143.3z M147.4,115.7c0,0,0-0.1,0-0.3l-0.6,0.3h0.3
	C147.3,115.7,147.4,115.7,147.4,115.7z M147.7,114.9c0,0.2,0.1,0.2,0.3,0H147.7z M148.4,98c-0.1-0.1-0.2,0-0.4,0.1h0.9
	C148.6,98.1,148.5,98.1,148.4,98z M148.8,113.7h-0.6l0.3,0.3C148.7,114,148.8,113.9,148.8,113.7z M149.4,98.1h0.6
	C149.8,97.9,149.6,97.9,149.4,98.1z M151.7,109.7c0,0-0.2-0.1-0.6-0.3c-0.2,0.2-0.3,0.6-0.3,1.2h-0.3c0,0.2-0.2,0.5-0.6,0.9h0.3
	c0,0.2-0.1,0.3-0.3,0.3h0.3v-0.3l0.6-0.9C151.4,110,151.7,109.7,151.7,109.7z M150.3,98.1l0.9,0.6c0.2,0.2,0.3,0.2,0.3,0
	c0.2,0.4,0.5,0.7,0.9,0.9c-0.4-0.4-0.6-0.7-0.6-0.9C151.3,98.3,150.8,98.1,150.3,98.1z M152.9,102.4c0.4-0.4,0.5-0.7,0.3-0.9
	C153.2,102,153.1,102.2,152.9,102.4z M188.4,25.8h-1.2v-0.3c-0.4,0-0.7,0.1-0.9,0.3l0.6,0.3h-0.6v0.3l0.6-0.3
	C187.7,26.1,188.2,26,188.4,25.8z M192.5,25c-0.8,0-1.3,0.1-1.4,0.3C191.8,25.3,192.3,25.2,192.5,25z M191.9,25.6h-0.3v0.3h0.3V25.6
	z M194.2,25.3l-1.2,0.3h1.2V25.3z M193.9,25v-0.3C193.9,24.9,193.9,25,193.9,25z M195.1,23.8c-0.2-0.2-0.4-0.2-0.6,0H195.1z
	 M195.4,25c0,0,0.1-0.1,0.3-0.3c0.2-0.2,0.4-0.3,0.6-0.3c-0.2-0.2-0.7-0.2-1.4,0c0,0.2,0.1,0.3,0.3,0.3
	C195.3,24.9,195.4,25,195.4,25z M195.1,25.3h-0.3v0.3h0.3V25.3z M208.9,19.8l0.6-0.3h-0.6V19.8z M211.5,3.9l1.2-0.3
	c0.2,0.2,0.4,0.2,0.6,0h-0.6C212.3,3.4,211.9,3.5,211.5,3.9z M211.5,4.5h2.9c-1.2,0-2-0.1-2.6-0.3L211.5,4.5z M211.5,22.7h0.6h0.3
	C212.2,22.3,211.9,22.3,211.5,22.7z M213.3,5.3h-0.9C212.8,5.5,213.1,5.5,213.3,5.3z M216.2,5.3h-1.7c0.2,0.4,0.5,0.6,0.9,0.6
	L216.2,5.3z M216.7,5.6h-0.6v0.3h0.6V5.6z"/>
</svg>
