<svg id="Calque_1" data-name="Calque 1" xmlns="http://www.w3.org/2000/svg" viewBox="0 0 453.49 238.17"><defs><style>.cls-1{fill:#30343f;}</style></defs><title>Logo Fixie</title><path class="cls-1" d="M230.94,72.53l-.14.14a.59.59,0,0,1-.43.14L228,73.4l-1.73.29h-.58A3,3,0,0,1,224,74h-.87l-.58.29-5.78.58-4,.58-3.76.29-4.91.58a13.87,13.87,0,0,0-3.18.29l-8.38,1.73L183.25,80l-12.43,2.6-2,.58a12.25,12.25,0,0,1-.58,2,3.12,3.12,0,0,1-1.45,1.16l-.58.58a3.85,3.85,0,0,0-.87,2.31l-.29.58a57.41,57.41,0,0,1-4.62,9l-8.67,15.32-2.31,4-.58,1.16c-.39.39-.58.68-.58.87a.83.83,0,0,0-.29.58.26.26,0,0,1-.29.29v.29l-.58.58a9.9,9.9,0,0,0-1.45,2.89l-.29.29-.29.87a2,2,0,0,0-.58,1.45l-.87.87-1.45,2.6-.87,2-5.78,10.69-1.73,2.89a.26.26,0,0,1-.29.29h21.39c0,.39.29.48.87.29h.58v-.29H161v-.29h.87a.26.26,0,0,1-.29.29h2.6a1.17,1.17,0,0,0,.87-.29h.29l-.29.29a9.79,9.79,0,0,0,3.18-.29h-.29c0-.19.19-.29.58-.29.38.39.67.58.87.58h2a4.75,4.75,0,0,1,2.6.58l.29-.29a.29.29,0,1,1,0,.58l.58,1.16V148a3.27,3.27,0,0,1,.29,1.45l.29.87a1.17,1.17,0,0,0,.58,1.45l-.29.29-.29.58-.29-.29a.26.26,0,0,0,.29-.29h-.29v.29a.25.25,0,0,0,.29.29.51.51,0,0,0-.58.58.26.26,0,0,1-.29.29h-.29v.29a.51.51,0,0,1,.58.58l-.29.29-.58.58c.38,0,.58-.09.58-.29h.58l-.29-.58c.19,0,.29-.19.29-.58a.26.26,0,0,0,.29-.29v.29a3.25,3.25,0,0,1-.29,1.45l-.29,1.73a.36.36,0,0,1,0-.58l-.58.29-.29-.29-.29.58.58.29.58-.29-.58,1.16-.58,1.16a.26.26,0,0,0-.29.29h.29a.26.26,0,0,1-.29.29,1.69,1.69,0,0,1-.29,1.16v-.29h-.58a.51.51,0,0,0-.58.58h.29v.29c.19,0,.29-.19.29-.58h.58c-.39.39-.58.68-.58.87l-.29.58c0-.19-.19-.48-.58-.87v.58l.58.29H172v.29h-.87V163a.26.26,0,0,1-.29.29v.29c-.19-.19-.29-.1-.29.29l.29-.29c0,.39-.1.58-.29.58a.36.36,0,0,0,0,.58l-.29.29-1.73,1.73-2.31,1.16-.58.29-.58.29a7,7,0,0,1-2.31.87,4.4,4.4,0,0,1-1.73.58l-2.89.87-5.78,1.44h-.87q-2,.58-3.9,1.16a33.13,33.13,0,0,1-3.32.87,63.59,63.59,0,0,1-6.94,1.45,37.53,37.53,0,0,0-5.78,1.16l-7.8,1.73-9,2a15.75,15.75,0,0,1-3.18.58,1.66,1.66,0,0,1-1.16-.29l-.87,2-.87,1.73a6.33,6.33,0,0,1-1.16,2.31l-.29.58-.87,2.31a11.19,11.19,0,0,0-1.16,2l-.58,1.73-.58,1.73-1.16,2.31-3.47,7.23-.58,1.16v-.29a.26.26,0,0,1-.29.29,1.66,1.66,0,0,1-.58,1.16l-.29.58a9.91,9.91,0,0,0-1.45,2.89l-.58.87a4.48,4.48,0,0,0-.58.72,1.77,1.77,0,0,0-.29,1l-.29.58a3.81,3.81,0,0,0-.87,1.3c-.19.48-.39.92-.58,1.3v.29l-1.16,1.73a12.91,12.91,0,0,1-1.45,2.6v.58A10.12,10.12,0,0,0,89,224c-.39.39-.58.68-.58.87a1.82,1.82,0,0,0-.43.87,1.29,1.29,0,0,1-.72.87l-2.31,4-1.45,2.6L82.66,235l-2.31,3.76-2,3.18-1.16,1.73q-2,2.89-2.31,3.18l-1.73,2.31-1.45,1.73-1.73,2.89a5.65,5.65,0,0,0-1.45,2l-1.16,1.16v.29c-.39.38-.58.67-.58.87l-1.16,1.16-2.31,3.47-1.16,1.16L61,265.61l-1.16,1.16a1.74,1.74,0,0,1-1.16,1.16l-1.73,2-2.31,2.6-1.73,2-2,2A8.49,8.49,0,0,1,49.13,278v.29a12.29,12.29,0,0,0-2.89,2.31l-2.31,1.73-.87.58-1.16.58-3.18,1.73-.58.29-2.31.87-2.31.29a7.6,7.6,0,0,1-2.31.29,6.51,6.51,0,0,1-2-.29l-2.31-.29a5.2,5.2,0,0,1-1.45-.58l-1.16-.29v-.87a.25.25,0,0,0-.29-.29l.29-.87.29-2.89a24.43,24.43,0,0,1,.58-4l.29-2v-.29q2.6-6.07,5.49-15v-.58a4.29,4.29,0,0,1,1.16-2v-.29l18.5-36.42,7.51-14.16q10.11-19.08,22-43.65a261.13,261.13,0,0,0,13-24.86l3.47-7.23a87.41,87.41,0,0,0,4.34-9q4.62-7.51,6.65-11.27V109l4.91-8.09q6.35-11,9.83-16.47l.29-.58-.58-.29-3.18-1.73a33.76,33.76,0,0,1-4.34-2.31,17.34,17.34,0,0,1-3.76-4.91l-.29-.87a16.29,16.29,0,0,0-.58-4.91l-1.16-4.91a13.62,13.62,0,0,1-.29-3.18,11.59,11.59,0,0,1,.29-3.18,1.32,1.32,0,0,0-.29-1.45c-.19-.58-.19-1,0-1.16V53.74a4.48,4.48,0,0,1,.87-2.46,3.5,3.5,0,0,1,2-1.59,10.18,10.18,0,0,0,2.17-.43,4.68,4.68,0,0,1,3,.14h1.16a10.25,10.25,0,0,1,2.89-.29l.58-.29h.29L121.1,50a.65.65,0,0,0,.72.14.66.66,0,0,1,.72.14h-.29a4.92,4.92,0,0,0,2,.29l.58-.29h.87a3.19,3.19,0,0,0,1.45.29l-.29-.29a1.34,1.34,0,0,1,1-.14,2.29,2.29,0,0,0,.72.14h3.18A1.16,1.16,0,0,1,133,49.7h2V50l.58-.29a5.73,5.73,0,0,1,2.6-.58h8.38a15.62,15.62,0,0,1,3.47.29l3.76.29a.26.26,0,0,1,.29.29h1.16q4.34.29,12.72.29h44.51a34.8,34.8,0,0,1,5.2.29h7.8a11.53,11.53,0,0,0,3.18.29,8.88,8.88,0,0,1,2.6.29h2.6a21.69,21.69,0,0,0,4,.29,15.39,15.39,0,0,1,1.73,6.94,16.37,16.37,0,0,1-.87,5.2,34.73,34.73,0,0,1-2.31,5.49,1.67,1.67,0,0,1-1.16.29.26.26,0,0,1-.29.29l-2.6.58q-.29-.58-.87,0h.87a1.18,1.18,0,0,0-.87.29h-.58q-.29-.58-.87,0a1.67,1.67,0,0,1-1.16.29,4,4,0,0,1-1.73.29v.58a.82.82,0,0,0,.29.58c0-.19.15-.29.43-.29s.43-.09.43-.29a1.26,1.26,0,0,0,.58-.14,1,1,0,0,1,.87.14.26.26,0,0,0-.29-.29.25.25,0,0,1-.29-.29h.87l.58.29h.58a1.67,1.67,0,0,0,1.16-.29v-.58l1.16-.29a1.26,1.26,0,0,0,1.73-.29h.58l-.58.58h.29l-1.16,1.73h-.29a4.83,4.83,0,0,0-1.45.29,4.72,4.72,0,0,1-1.45.29ZM65,256.65l-.58,1.16A1.68,1.68,0,0,0,65,256.65Zm3.47-4v-.29h-.29l-.29.58a.26.26,0,0,0-.29.29l-.29.58a.25.25,0,0,1-.29-.29c-.19,0-.19.1,0,.29v.29l-.87.87-.58.87c-.19,0-.29.19-.29.58v.29l1.45-2c.19,0,.29-.19.29-.58l.87-.87Zm.29,2v-.29H68.5v.29Zm.29-3.47-.29.58V252a.26.26,0,0,0,.29-.29Zm.58-2v-.29h-.29A.25.25,0,0,0,69.65,249.14Zm6.94-8.67a9.94,9.94,0,0,1-.58,1,8.83,8.83,0,0,0-.58,1,.26.26,0,0,0-.29.29l-.87,1.44a1.66,1.66,0,0,0-.58,1.16l-.58.29a2.81,2.81,0,0,0-.72,1,1.86,1.86,0,0,1-.43.72h-.29l-.29.58v-.29l-.58.58h.29c0,.19-.19.48-.58.87l-.87,1.16v.29a3.13,3.13,0,0,0,1.16-1.45l.87-1.16a10.69,10.69,0,0,0,2-2.6l.87-1.16.87-1.73.87-.87Zm-5.78,11c-.19,0-.29.19-.29.58ZM73,243.79c-.1.1,0,.14.14.14v-.29Zm5.35-5.64-.29.29a.26.26,0,0,1-.29.29c-.19-.19-.29-.09-.29.29a1.18,1.18,0,0,0-.29.87l-.29.29h.29v-.29a1.67,1.67,0,0,0,.58-1.16H78Zm3.47-5.2a.51.51,0,0,0-.58.58Zm.87-1.45a.51.51,0,0,0-.58.58l-.29.29h.29C82.08,232.18,82.27,231.89,82.66,231.5Zm-.58-.29a.26.26,0,0,0,.29-.29h-.29Zm20.23-37-1.16,2-.87,1.16a1.68,1.68,0,0,1-.29,1.16l-.58,1.16a13.23,13.23,0,0,0-.87,1.44,2.23,2.23,0,0,0-.29.87l-.87,1.44-.87,1.73a4.22,4.22,0,0,1-1.45,2c0,.39-.1.58-.29.58a1.18,1.18,0,0,0-.29.87V209q-.29,0-.87,1.44h-.29a3.18,3.18,0,0,1-1.16,2c0,.19-.1.19-.29,0h-.29a366.68,366.68,0,0,1,.58-.58h.29l.29-.87a.37.37,0,0,0,0-.58.26.26,0,0,0,.29-.29,1.18,1.18,0,0,0,.29-.87l.29-.58.58-.58.29-.58v-.29a2.37,2.37,0,0,0-.87,1.45.26.26,0,0,1-.29.29l-.58.58-.29,1.16a17.49,17.49,0,0,0-2,3.76v.29l-.29.29-.29.87a.26.26,0,0,0-.29.29l-.87,1.16-.58,1.16v.29a.26.26,0,0,0,.29-.29l1.16-1.16v.29a1.8,1.8,0,0,1-.29,1,1.4,1.4,0,0,0-.29.72c-.39.39-.58.68-.58.87a.26.26,0,0,0-.29.29.26.26,0,0,1-.29.29,1.66,1.66,0,0,0-.58,1.16,1.19,1.19,0,0,1-.29.87l-.29.58V224l-.58.87a1.66,1.66,0,0,0-.58,1.16l-.87.87a.26.26,0,0,1-.29.29c.19,0,.09.19-.29.58.19.19.24.34.14.43a.59.59,0,0,0-.14.43.26.26,0,0,0-.29.29l-.87,1.45v.29l-.29.58a.26.26,0,0,1,.29-.29,6.72,6.72,0,0,1,1.16-1.73l.29-1.16,2-3.18L88.15,222l.87-1.16.87-2q.28-.58,2.31-4l.29-.87L93.93,211l4-7.23.58-1.73.29-.58a.26.26,0,0,1,.29-.29l2-4.33,1.16-2.31ZM84.39,226v-.29l.29-.29a.92.92,0,0,0,.58-.87v-.29l.29-.58.87-1.45c-.77.39-1.06.87-.87,1.45L85,224A12.25,12.25,0,0,1,84.39,226Zm.58-2.6v.29h.29v-.29Zm.58,5.2-.58.87C85.36,229.1,85.55,228.81,85.55,228.61Zm.87-7.8.29.58a.26.26,0,0,0,.29-.29v-.29l.87-.58v-.87l-.58.29Zm1.45,3.76-.58.58h.29Zm-.29,1.16.29-.58-.58.58Zm0-6.65h.29v-.29h-.29Zm1.16,4v-.58c-.39.39-.48.68-.29.87-.19,0-.29.19-.29.58a.26.26,0,0,0-.29.29h.29v.58c0-.38.09-.58.29-.58V224l-.29.29V224c.19,0,.24,0,.14-.14s0-.24.15-.43Zm8.38-16.19a.26.26,0,0,1-.29.29l-.29.58-.29.58-.58.58v-.29a.26.26,0,0,1-.29.29h.29l-.29.58v-.29l-.29.58a.26.26,0,0,1,.29-.29v.29l-1.16,2a.26.26,0,0,1-.29.29.26.26,0,0,0-.29.29h.29v.29h-.29l-.29.87-.29.29a10,10,0,0,1-1.45,2.89L91,217.92l-.58,1.16a1.18,1.18,0,0,0-.29.87l-.87,1.45v.29H89v.58h.29a.29.29,0,1,0,0-.58l.29-.29c0-.19.19-.48.58-.87l.29-.58v.58c.38-.19.58-.67.58-1.45l.29-.29c.19,0,.29-.19.29-.58v-.29c0-.38.09-.58.29-.58.19.19.29.19.29,0h-.29l-.29-.58c.38,0,.58-.1.58-.29l.87-1.45h.29l.58-1.16.29-1.16c0,.19.19.29.58.29l-.29-.29v-.58l.58.29.29-.87H94.8a3.67,3.67,0,0,0,.87-1.45,3.58,3.58,0,0,1,.87-1.44,5,5,0,0,1,.58-1.45Zm.58-.58v-.58a.26.26,0,0,0-.29.29.26.26,0,0,1-.29.29Zm.87-1.73c-.19-.19-.29-.19-.29,0Zm7.51-16.19-.29-.29v.29Zm1.16-2.89a1.18,1.18,0,0,1-.43.72c-.29.29-.34.53-.14.72l.58-1.16Zm.58-.58v-.29a.26.26,0,0,0-.29.29Zm24-38.44v-.58l-.58.58Zm.29-.87v-.29a.26.26,0,0,1-.29.29Zm7.23-11.27-.58.58q-.29.58-1.45,2.6l-.29.58a3.18,3.18,0,0,1-1.16,2l.87-1.45v-.58l-.29.58-.58,1.16-.29.58c-.39.39-.58.68-.58.87a.26.26,0,0,1-.29.29l-.29.87-.58.87-.87,1.73h.29c0,.19-.19.48-.58.87a.59.59,0,0,0-.43.14c-.1.1,0,.24.14.43,0-.38.09-.58.29-.58l-.29.87H133v-.29a6.7,6.7,0,0,1,1.16-1.73v-.29l.29-.58.58-.87h.29l.29-.58a2,2,0,0,1,.58-1.45.26.26,0,0,1,.29-.29h-.29l.29-.58a.26.26,0,0,0,.29-.29l.58-1.16,1.16-2.31a1.18,1.18,0,0,0,.29-.87l.58-.87Zm-6.94,10.41a.26.26,0,0,0,.29-.29.26.26,0,0,1,.29-.29l.29-.87a.26.26,0,0,0-.29.29.26.26,0,0,1-.29.29A1.18,1.18,0,0,1,132.37,144.79Zm1.16-2.6v.29a.26.26,0,0,0,.29-.29Zm.58-.58.58-.58Zm3.47-4.91c.38,0,.58-.29.58-.87C137.77,136.22,137.58,136.51,137.58,136.7Zm1.16-2.31c.19,0,.29-.19.29-.58Zm1.16-1.16a.26.26,0,0,1-.29.29h.29Zm.58-1.16h0v0Zm2.89-5.2-.29.58C143.26,127.45,143.36,127.26,143.36,126.87Zm.58-.58-.29.29h.29ZM150,114.73l-.29.29H150Zm0,34.69h0Zm4.34-1.73h1.16a.6.6,0,0,1,.43.15c.09.1.24,0,.43-.15Q156.07,147.4,154.34,147.68Zm2.6,0a1.18,1.18,0,0,0,.87-.29h-.87Zm0,.87h.29v-.29h-.29Zm1.16-.29h-.29v.29h.29Zm1.45.58,4.34-.29H161v-.29h.58a1.45,1.45,0,0,0-1.73,0h-.29v.58Zm3.18-1.45h.58v-.29h-.58Zm2.6-.29q2.89.58,4,0a.48.48,0,0,0-.58-.14,1.26,1.26,0,0,1-.58.14Zm4,17.63v-.29l-.58.29h.58Zm.29-.87c0,.19.09.19.29,0Zm.72-16.91c-.1-.09-.24,0-.43.14h.87A.57.57,0,0,1,170.38,147Zm.43,15.75h-.58l.29.29A.26.26,0,0,0,170.82,162.71Zm.58-15.61H172A.36.36,0,0,0,171.39,147.1Zm2.31,11.56-.58-.29a1.67,1.67,0,0,0-.29,1.16h-.29c0,.19-.19.48-.58.87h.29a.26.26,0,0,1-.29.29h.29v-.29l.58-.87Zm-1.45-11.56.87.58c.19.19.29.19.29,0a1.84,1.84,0,0,0,.87.87c-.39-.38-.58-.67-.58-.87A2,2,0,0,0,172.26,147.1Zm2.6,4.34c.38-.38.48-.67.29-.87A1.18,1.18,0,0,1,174.86,151.44Zm35.55-76.6h-1.16v-.29a1.18,1.18,0,0,0-.87.29l.58.29h-.58v.29l.58-.29A2.29,2.29,0,0,0,210.42,74.84Zm4-.87a2.3,2.3,0,0,0-1.45.29A2.29,2.29,0,0,0,214.46,74Zm-.58.58h-.29v.29h.29Zm2.31-.29-1.16.29h1.16Zm-.29-.29v0Zm1.16-1.16a.37.37,0,0,0-.58,0Zm.29,1.16.29-.29a.84.84,0,0,1,.58-.29c-.19-.19-.68-.19-1.45,0a.25.25,0,0,0,.29.29Zm-.29.29h-.29v.29h.29Zm13.87-5.49.58-.29h-.58Zm2.6-15.9,1.16-.29a.36.36,0,0,0,.58,0h-.58A1,1,0,0,0,233.54,52.88Zm0,.58h2.89a8.72,8.72,0,0,1-2.6-.29Zm0,18.21h.87Q234.11,71.09,233.54,71.66Zm1.73-17.34h-.87Q235,54.61,235.27,54.32Zm2.89,0h-1.73a.92.92,0,0,0,.87.58Zm.58.29h-.58v.29h.58Z" transform="translate(-23.98 -48.83)"/><path class="cls-1" d="M140.18,235.55l.29-2.6a62,62,0,0,1,2.31-10.12q1.15-3.75,2.31-6.65t2-5.2Q152,199.13,159,185.84c.38-.58.48-1,.29-1.16a.26.26,0,0,1,.29-.29,13.68,13.68,0,0,0,2-3.76q2.6-5.2,12.43-21.39l2.31-3.76,1.73-2.6.58-.87.58-.58a.37.37,0,0,0,0-.58l.29-.29.87-1.16c0-.38.1-.58.29-.58l.58-.87,1.73-2.89a11.16,11.16,0,0,1,1.16-2l.58-1.16,2.89-5.49.58-.58c.58-.58,1-.77,1.16-.58l2.31-2.89,2.31-2.6,1.73-1.45a5.65,5.65,0,0,1,2.89-1.16,24.49,24.49,0,0,1,4.34.58l1.16.29h.29a24.18,24.18,0,0,0,3.18,1,16.92,16.92,0,0,1,3.47,1.3l4.62,2.6a22.66,22.66,0,0,1,4,2.89l1.16.87a5.6,5.6,0,0,0,2,1.45,7,7,0,0,1,1.73,1.16,4.55,4.55,0,0,1,2.31,3.18,1.16,1.16,0,0,0,.29.87,2,2,0,0,0-.58,1.45,6.13,6.13,0,0,1-2.31,2.6l-.87,1.16-.87.87-2,2.6a51.58,51.58,0,0,1-5.2,7.23l-9,11.85a12.92,12.92,0,0,0-2,3.18c-.58,1-1.11,1.83-1.59,2.6s-.92,1.45-1.3,2l-.29.58a17.78,17.78,0,0,0-2.89,3.76q-3.47,5.2-4.91,7.8l-7.8,12.14q-4.63,7.52-7.23,11.27a6.81,6.81,0,0,1-1.16,1.73l-.29.29a15,15,0,0,1-2,3.18,27.27,27.27,0,0,0-3.76,6.65.26.26,0,0,0-.29.29l.58-.29a94.21,94.21,0,0,0,18.5-12.43l4.91-3.76q14.16-11.27,32.66-27.75l11-10.7a5.17,5.17,0,0,0,1.45-1.44,1,1,0,0,0,.87-.87l.29-.29c0-.19.19-.48.58-.87a.26.26,0,0,0,.29-.29l1.16-1.73h.29l1.45.58v.87l-.29,1.44-.29.87a8.1,8.1,0,0,1-.87,2.31v.29a.26.26,0,0,1-.29.29l-.29.58c-.19.19-.24.34-.15.43s0,.14-.14.14a22.75,22.75,0,0,1-1.16,2.89h-.29a2,2,0,0,1-.58,1.45h0l-1.16,2a.26.26,0,0,0-.29.29l-1.73,2.6a2.7,2.7,0,0,1-1.45,1.73.26.26,0,0,0-.29.29.84.84,0,0,1-.29.58l-.58.58-.58.58a.92.92,0,0,1-.58.87.26.26,0,0,0-.29.29h.29l-.58.29a1.79,1.79,0,0,0-.43.72,1.32,1.32,0,0,1-.72.72l-.87,1.44a.51.51,0,0,0-.58.58c-.58.58-1,.87-1.16.87v.29l-.87,1.16-.58.58A1.73,1.73,0,0,1,226.6,196a4.22,4.22,0,0,1-1.45,2,.26.26,0,0,0-.29.29l-.29.29h-.29a.26.26,0,0,1,.29.29.26.26,0,0,0-.29.29l-.87.87-.58.58h0a1,1,0,0,1-.87.87v.29c0,.19-.29.29-.87.29a.25.25,0,0,0,.29.29l-.58.58a2360479.46,2360479.46,0,0,1-.58.58.51.51,0,0,0-.58.58h-.29c0,.19,0,.29.14.29s.14-.1.14-.29l-.58.58a1.29,1.29,0,0,1-.14.58q-.15.29-.43,0l-.29.58a.26.26,0,0,0-.29.29.84.84,0,0,1-.29.58l-.58.58q-.58.58-.87.29v.58l-.58.29v.29l-1.45,1.73h-.29a1.85,1.85,0,0,0-.87,1.16.26.26,0,0,1-.29.29l-.58.29v.29l-.87,1.16L209.83,215l-.58.29a.26.26,0,0,1-.29.29l-.29.29a3.64,3.64,0,0,1-1,1.16,3.62,3.62,0,0,0-1,1.16.26.26,0,0,1-.29.29l-.58.29-1.73,2.31c-.39,0-.58.1-.58.29-.19,0-.29.19-.29.58a3.42,3.42,0,0,0-1.73,2l-3.18,4-.58.58-.87,1.16-2.31,2.89-1.45,1.44-1.16,1.16-2.6,2.89a10.57,10.57,0,0,1-1.73,2,6.65,6.65,0,0,1-2.31,2.31l-1.16,1.44a8.25,8.25,0,0,0-1.73,1.45l-2.31,2.31-1.45,1.16-2.31,1.73L174.57,252l-2,1.44-1.16.87c-.77.39-1.49.77-2.17,1.16s-1.21.67-1.59.87a5.49,5.49,0,0,0-1.3.58,4.32,4.32,0,0,0-.72.58l-3.18,1.16-1.16.58a2.32,2.32,0,0,1-1.45.29l-2.31.87h-.29l-1.16-.29a11.38,11.38,0,0,1-4.34-1.73,7.22,7.22,0,0,1-2.6-2l-2.6-2.31-.58-1.16a10.92,10.92,0,0,1-2-2.89l-1.73-3.47a16.32,16.32,0,0,1-1.73-5.2l-.29-.87Zm6.94,17.92h0Zm6.36,5.2a.26.26,0,0,0,.29.29A.26.26,0,0,1,153.47,258.67Zm1.16.58h0Zm9.54-1.73h0Zm32.66-127.18h0Zm12.72,83v0h0Zm52-125.73-.58.58-2.6,2.31-1.45,1.16a.26.26,0,0,1-.29.29l-2,1.73h-.29a3.27,3.27,0,0,1-1.16,1.16,3.39,3.39,0,0,0-.87.58l-2,1.45-.87.58a.92.92,0,0,0-.87.58,9.24,9.24,0,0,1-2,.87.68.68,0,0,1-.58.72,3.82,3.82,0,0,1-.87.14.25.25,0,0,0,.29.29l-.87.58h-.58a4.5,4.5,0,0,1-1.73,1.16.26.26,0,0,1-.29.29.84.84,0,0,0-.58.29c-.19,0-.48.19-.87.58a2.25,2.25,0,0,0-.87.29q-.58.29-.87,0c0,.39-.1.58-.29.58l-.58.29a1.66,1.66,0,0,1-1.16.58,1.18,1.18,0,0,0-.87.29l-1.16.58h-.29l-.29.29a4.39,4.39,0,0,1-1.73.58,1.29,1.29,0,0,0-.58.14,2.33,2.33,0,0,0-.58.43h-.58c-.19,0-.24,0-.14.15s0,.14-.14.14l-2,.29a1.67,1.67,0,0,1-1.16.29h-.58a.66.66,0,0,0-.72-.14.65.65,0,0,1-.72-.14l-.29-.29-.29.29a1.69,1.69,0,0,0-1.16-.29h-.87l-.29-.58v.29h-1.16c-.39,0-.58-.09-.58-.29l-.87-.29c-.58,0-.87-.19-.87-.58h-.29c-.39-.19-.58-.38-.58-.58a.86.86,0,0,0-.29-.58,1.66,1.66,0,0,1-.29-1.16,5.39,5.39,0,0,1,.58-2.89c.58-1.73,1-2.79,1.16-3.18l.87-1.73.87-1.73q.28-.58,2.6-4.62l1.16-2,1.73-3.18.29-.58a6.78,6.78,0,0,0,1.16-1.73l.87-1.45a.26.26,0,0,1,.29-.29l.29-.87,1.73-2.6a6.81,6.81,0,0,0,1.16-1.73l1.45-2,.87-1.16,2.89-3.18,1.73-2.6.87-1.16a1.66,1.66,0,0,1,.58-1.16A6.34,6.34,0,0,1,245.1,61a1.18,1.18,0,0,0,.87-.29h2l.29.29h2l3.18.58a3.63,3.63,0,0,1,1.3.29,3.49,3.49,0,0,0,1.3.29h.29a2.34,2.34,0,0,0,1.73.58c.38.39.67.58.87.58h.87a.58.58,0,0,0,.14.43c.1.1.24,0,.43-.14H261a.26.26,0,0,1-.29.29h0a.26.26,0,0,0,.29-.29l.87.58a1.2,1.2,0,0,1,.87.29l.58.29,1.16.29.58.58a1.2,1.2,0,0,1,.87.29l.58.29a.82.82,0,0,0,.58.29c.19,0,.38.19.58.58h.29a1.16,1.16,0,0,0,.87.29l-.29.29a.25.25,0,0,0,.29.29c.77,0,1.25.19,1.44.58l.87,1.45a1.19,1.19,0,0,1,.29.87h.29v.58a.26.26,0,0,1-.29.29l.29.29v.87h-.29a.36.36,0,0,0,0,.58v.87h-.29v1.16a1.67,1.67,0,0,0-.29,1.16.37.37,0,0,0-.58,0,.8.8,0,0,1-.14,1,1.19,1.19,0,0,0-.43.72H270a1.34,1.34,0,0,0-.87,1.45l-.29-.29a4.7,4.7,0,0,1-2,2.89,1.76,1.76,0,0,0-.43.72q-.15.43-.43.43h-.29a2.61,2.61,0,0,1-.87,1.3,2.83,2.83,0,0,0-.87,1h-.29v0l-.58.58-.87.87ZM221.69,98.83v0Zm5.78,8.67h0Zm1.16-21.39v0h.29l.29-.58-.29.58Zm15.61,81.8h0Zm3.47-71.68h-.29a.26.26,0,0,1-.29.29.26.26,0,0,0-.29.29,6.24,6.24,0,0,0-2,1.16.26.26,0,0,0-.29.29.26.26,0,0,1,.29-.29,5.44,5.44,0,0,0,1.3-.58,4.52,4.52,0,0,0,.72-.58l.29-.29.29-.29Zm9-33.53h0Zm3.18,1.16v.29h.29Zm2,.29v0ZM265,65.88v0Zm.87,16.76v0Zm3.18-13a.25.25,0,0,0,.29.29l.29-.29Zm.29,6.36a.26.26,0,0,0-.29.29A.26.26,0,0,0,269.38,76Z" transform="translate(-23.98 -48.83)"/><path class="cls-1" d="M238.44,173.7a.26.26,0,0,0,.29-.29h-.29a3,3,0,0,1-.14-1.59,2,2,0,0,0-.14-1.3,3.14,3.14,0,0,0,.14-1.59,6.42,6.42,0,0,1-.14-1.3v-1.73a21.69,21.69,0,0,1-.29-4v-3.18l-.29-.87.29-.58v0a3.19,3.19,0,0,1-.29-1.44.47.47,0,0,1-.15-.58,1.28,1.28,0,0,0,.15-.58.6.6,0,0,0-.15-.43c-.1-.09,0-.24.15-.43v-.58a.26.26,0,0,0-.29-.29l.58-.29h-.58c.38-.38.48-.67.29-.87.19-.19.09-.38-.29-.58a1.68,1.68,0,0,0,.29-1.16h-.29v-.87l.58-.29-.58-.29v-3.47q-.29-.28,0-.43t0-.43v-1.16l-.29-1.73a5,5,0,0,0-.29-2,7.63,7.63,0,0,0-.29-2.31,8.85,8.85,0,0,0-.29-2.6q-1.45-1.44-.29-2.6a7.22,7.22,0,0,1,3.18-1.73,5.84,5.84,0,0,0,1-.14,2,2,0,0,1,1.3.14h.87a6.09,6.09,0,0,1,2.31.29,32.43,32.43,0,0,1,7.23,2.6,4.36,4.36,0,0,0,1.73.58,29.44,29.44,0,0,1,6.94,3.47l1.73,1.73,4,3.76a20.74,20.74,0,0,1,3.18,5.49,23.15,23.15,0,0,1,.87,6.65q.28,4.05.29,12.14a60.42,60.42,0,0,0,.29,6.94l.58,2,.58-.29,13-13.87q11-11.27,18.5-20.52l2-2a26.27,26.27,0,0,1,4.62-4.62,16.19,16.19,0,0,1,8.09-2.31l11.85-.87a34.07,34.07,0,0,0,5.2-.29,57.24,57.24,0,0,0,6.65-.29,24.47,24.47,0,0,1,4-.58l.58-.29h3.18a1.66,1.66,0,0,0,1.16.29q1.73.58,1.73,1.73v.87a19.86,19.86,0,0,1-2.31,4.91l-1.44,1.73-4.91,4.91-16.19,15.61L316.2,170.23l-11,9.25a2.63,2.63,0,0,1-1.44,1.45l-.87.87h-.29l-.29.58H302c0,.39-.1.58-.29.58h-.29l-.58.87h-.29v.29c-.19,0-.24.05-.14.14s0,.14-.14.14h0c-.39.77-.87,1-1.44.58,0,.39-.1.58-.29.58v.29l-1.16.87h-.29V187l.29-.29c0,.19-.19.48-.58.87h-.58v.29h-.58l.29.29-.58.29v.29c-.19.19-.34.24-.43.14a.61.61,0,0,0-.43-.14l-.29.58h.58c-.19.19-.34.24-.43.14a.61.61,0,0,0-.43-.14v.87l-.58-.29a1.17,1.17,0,0,0-.29.87V191c-.19,0-.48.19-.87.58-.39,0-.58-.1-.58-.29l-.58.58v.29l-.29.58a.51.51,0,0,1-.58.58.26.26,0,0,1-.29.29,1.14,1.14,0,0,0-.72.14,1.12,1.12,0,0,0-.15.72h-.87v.58a.26.26,0,0,0-.29.29l-.87.87h-.29a.51.51,0,0,1-.58.58h-.29v.29h-.29l-.29.58-1.45,1.45h-.58l-.29.29a2360478.13,2360478.13,0,0,0-.58.58.46.46,0,0,1-.29.43.47.47,0,0,0-.29.43q-.29.29-.87,0h.29v.29a.26.26,0,0,1-.29.29l-.29.29-1.73,1.73-1.16,1.16-.29.29-.58.58c-.39.39-.68.58-.87.58a1.66,1.66,0,0,0-.29,1.16v1.16l.58,13.87q.58,7.52,1.16,11a78.79,78.79,0,0,0,2.31,9.25l2.89,5.78a1.2,1.2,0,0,1,.87.29,8.34,8.34,0,0,0,3.18,2.89c0,.39.19.39.58,0h.58l.29.29.29-.58h.87l.29-.29h.87a.84.84,0,0,1,.58-.29.26.26,0,0,0,.29-.29l.29.29v0a.26.26,0,0,0,.29-.29,2,2,0,0,0,1.45-.58l.58.29v-.29c.38-.38.67-.58.87-.58v.29l.87-.58a.51.51,0,0,0,.58-.58l1.16-1.16H298a.26.26,0,0,1,.29-.29l.87-.87.58-.58a3.25,3.25,0,0,1,1.44-.29,1.25,1.25,0,0,0,.58-.14.48.48,0,0,1,.58.14,1.74,1.74,0,0,1,1.16,1.16,5,5,0,0,1,.29,2,3.34,3.34,0,0,1-1.16,2.31l-.29.58-.29.29c.19,0,.29.05.29.14s-.1.15-.29.15l-.29.58a.26.26,0,0,1-.29.29l-.29.29c0,.19-.29.58-.87,1.16l-.87,1.44a1.2,1.2,0,0,1-.87.29q.58.58,0,.58h0l-.29.58h-.58l.29.29-.58.29-.29.58-.29-.29.29.29c0,.19-.29.29-.87.29V259l-1.16.87-.29.29a.25.25,0,0,0-.29.29h-.29v.29l-.58-.29c0,.38-.1.58-.29.58a.29.29,0,1,0-.58,0l.58.29h-.58a.25.25,0,0,0-.29.29h-.29l-.29.58a1.69,1.69,0,0,1-1.16.29v-.29l-.29.29a1.13,1.13,0,0,1-.87,1.16h-.29l-.29-.29-.29.58h-.58v.29l-.58.29c-.39,0-.58.09-.58.29a1.16,1.16,0,0,0-.87.29,4.35,4.35,0,0,0-1.73.58,1.18,1.18,0,0,1-.87-.29,1.14,1.14,0,0,1-1.73.58l-.29.29-2.6.58a8.72,8.72,0,0,0-1.45.14,3.62,3.62,0,0,1-1.73-.14h-.87a13.87,13.87,0,0,1-3.18-.29,682.55,682.55,0,0,1-1.73-.58l-1.16-.29-.58-.29V265l-.58.29c-.39-.39-.68-.58-.87-.58l-.29-.29h-.29v-.58a.26.26,0,0,1-.29.29.26.26,0,0,1-.29-.29H265v-.29l-.87-.29V263c0-.19-.1-.19-.29,0h-.29q-.29,0-1.16-.87v-.29q-.29.28-.87-.29a4.54,4.54,0,0,0-.72-.58,9,9,0,0,0-1-.58l-.29-.58a.26.26,0,0,1-.29-.29l-1.73-1.45a4.51,4.51,0,0,1-.58-.72,1.78,1.78,0,0,1-.29-1h-.29a.46.46,0,0,1-.43-.29,2.34,2.34,0,0,0-.43-.58l.29-.29h-.58a11.58,11.58,0,0,0-1.16-2l-.87-1.16-.58-.58q-.29-.28,0-.87A.51.51,0,0,1,252,250c-.19-.38-.39-.77-.58-1.16a4.68,4.68,0,0,0-.87-1.16,1.19,1.19,0,0,0-.29-.87c-.19,0-.29-.29-.29-.87-.19,0-.24-.09-.14-.29s0-.29-.14-.29l-.58-.58v-.58a.25.25,0,0,1-.29-.29v-.29l-.29-.29-.87-2a2.44,2.44,0,0,0-.14-.72,2.94,2.94,0,0,0-.72-1v-.87a4.33,4.33,0,0,1-.87-1.16l-.58-1.16L244.8,235l-.58.29-.29.29a9.64,9.64,0,0,1-1.16,1.44,4.48,4.48,0,0,0-.87,1.16c-.39-.19-.58-.1-.58.29v.29h-.58v.58a.25.25,0,0,1-.29-.29v.87c-.19,0-.48.19-.87.58h0a.26.26,0,0,1-.29.29,1.73,1.73,0,0,1-1.16,1.16h-.29c0,.39-.1.58-.29.58v-.29c-.19.19-.24.34-.15.43s0,.24-.14.43h-.58l-.29.58h-.29a.26.26,0,0,0-.29.29v-.29h.29l-.29.58-.58-.29a.57.57,0,0,0,.14.43c.09.1,0,.25-.14.43a.26.26,0,0,0-.29-.29h.29a.26.26,0,0,0-.29.29l-.29.58h-.29l-.58.58.29.29a.85.85,0,0,0-.58-.29.26.26,0,0,0-.29.29c0,.39-.1.58-.29.58a.51.51,0,0,1-.58.58c-.39.39-.68.58-.87.58h.29l-.58.58L229.77,250h0l-1.45,1.16a.26.26,0,0,1-.29.29l-.58.58v.29c-.58,0-.87.19-.87.58l-1.16,1.16a1.18,1.18,0,0,0-.72.43c-.29.29-.53.34-.72.14,0,.58-.39.87-1.16.87v.58h-.29c0,.19-.19.38-.58.58,0-.19-.1-.19-.29,0l-.58.58-.87.87h-.87a.36.36,0,0,1,0,.58h-.29l-.29.58a.26.26,0,0,0-.29-.29.51.51,0,0,1-.58.58h0a1.34,1.34,0,0,1-1.45.87l-.29.58c-.19,0-.48.19-.87.58a1.2,1.2,0,0,1-.87.29v.29h-.29l-.29-.29.29.29v.29l-.58-.29-.29.58q-.29-.29-.87,0l.58.29c-.19.19-.29.19-.29,0a.26.26,0,0,0-.29-.29l-.29.87-.29-.58-.29.87a1.69,1.69,0,0,1-1.16.29v-.29l-.58.29v.29c0,.19-.19.48-.58.87h-.58l-.58.29h.29a.25.25,0,0,0-.29.29h-.58a.26.26,0,0,1-.29.29,1.86,1.86,0,0,1-.72.43,1.77,1.77,0,0,0-.72.43l-1.16.58-1.73.58-3.76,2-1.16.58a4.4,4.4,0,0,0-1.73.58l-3.18,1.16h-.58a12.38,12.38,0,0,1-4.34.87,17.4,17.4,0,0,1-3.76.29h-.87a65.33,65.33,0,0,1-7.23-.29q-5.2-1.16-7.8-2l-2.31-1.16-1.45-1.16-1.16-.87v-1.16a2.81,2.81,0,0,1,1-.72,2.3,2.3,0,0,1,.72-.14l2.31-1.16,2.6-1.73c.19,0,.48-.19.87-.58h.58q7.52-5.2,11-8.09,2-1.44,6.07-4.91l7.23-5.78,1.73-1.73q6.07-5.2,6.36-5.49l6.36-5.78,4-3.47,6.65-6.65,1.45-1.16,5.2-5.2q.29-.28,11.85-12.72a5.06,5.06,0,0,0,.58-1.45l-.87-8.38a24.28,24.28,0,0,0-.29-4.34q0-4-.58-11.56V173.7Zm-28.62,90.76v-.29h.58v.29Zm11.85-9v0Zm11.56-9.25.29.29c-.19,0-.29,0-.29-.14Zm8.67-8.09h0ZM268.79,265h0Zm22-2.6.29.29c-.39,0-.58-.1-.58-.29Zm.29-70.81h.58v.29c0,.19,0,.24-.14.14Zm.29,59.25h-.29a.26.26,0,0,1,.29.29Zm4.34-2h-.29v-.29c0,.19,0,.29.14.29Zm4.91-64.75a.26.26,0,0,1,.29-.29A.26.26,0,0,0,300.59,184.1Z" transform="translate(-23.98 -48.83)"/><path class="cls-1" d="M309.26,235.55l.29-2.6a62.07,62.07,0,0,1,2.31-10.12q1.15-3.75,2.31-6.65t2-5.2q4.91-11.85,11.85-25.15.57-.87.29-1.16a.26.26,0,0,1,.29-.29,13.71,13.71,0,0,0,2-3.76q2.6-5.2,12.43-21.39l2.31-3.76,1.74-2.6.58-.87.58-.58a.37.37,0,0,0,0-.58l.29-.29.87-1.16c0-.38.1-.58.29-.58l.58-.87,1.74-2.89a11.26,11.26,0,0,1,1.16-2l.58-1.16,2.89-5.49.58-.58c.58-.58,1-.77,1.16-.58l2.31-2.89,2.31-2.6,1.73-1.45a5.66,5.66,0,0,1,2.89-1.16,24.5,24.5,0,0,1,4.34.58l1.16.29h.29a24.22,24.22,0,0,0,3.18,1,17,17,0,0,1,3.47,1.3l4.62,2.6a22.63,22.63,0,0,1,4,2.89l1.16.87a5.59,5.59,0,0,0,2,1.45,6.92,6.92,0,0,1,1.73,1.16,4.55,4.55,0,0,1,2.31,3.18,1.17,1.17,0,0,0,.29.87,2,2,0,0,0-.58,1.45,6.13,6.13,0,0,1-2.31,2.6l-.87,1.16-.87.87-2,2.6a51.27,51.27,0,0,1-5.2,7.23l-9,11.85a12.86,12.86,0,0,0-2,3.18c-.58,1-1.11,1.83-1.59,2.6s-.92,1.45-1.3,2l-.29.58a17.81,17.81,0,0,0-2.89,3.76q-3.47,5.2-4.91,7.8l-7.81,12.14q-4.63,7.52-7.22,11.27a6.81,6.81,0,0,1-1.16,1.73l-.29.29a15,15,0,0,1-2,3.18,27.25,27.25,0,0,0-3.76,6.65.26.26,0,0,0-.29.29l.58-.29A94.27,94.27,0,0,0,359,213.87l4.91-3.76q14.16-11.27,32.66-27.75l11-10.7a5.2,5.2,0,0,0,1.45-1.44,1,1,0,0,0,.87-.87l.29-.29c0-.19.19-.48.58-.87a.26.26,0,0,0,.29-.29l1.16-1.73h.29l1.45.58v.87l-.29,1.44-.29.87a8,8,0,0,1-.87,2.31v.29a.26.26,0,0,1-.29.29l-.29.58c-.19.19-.24.34-.14.43s0,.14-.14.14a23,23,0,0,1-1.16,2.89h-.29a2,2,0,0,1-.58,1.45h0l-1.16,2a.26.26,0,0,0-.29.29l-1.73,2.6a2.71,2.71,0,0,1-1.44,1.73.26.26,0,0,0-.29.29.84.84,0,0,1-.29.58l-.58.58-.58.58a.92.92,0,0,1-.58.87.26.26,0,0,0-.29.29h.29l-.58.29a1.81,1.81,0,0,0-.43.72,1.32,1.32,0,0,1-.72.72l-.87,1.44a.51.51,0,0,0-.58.58q-.87.87-1.16.87v.29l-.87,1.16-.58.58a1.73,1.73,0,0,1-1.16,1.16,4.22,4.22,0,0,1-1.45,2,.26.26,0,0,0-.29.29l-.29.29h-.29a.26.26,0,0,1,.29.29.26.26,0,0,0-.29.29l-.87.87-.58.58h0a1,1,0,0,1-.87.87v.29c0,.19-.29.29-.87.29a.25.25,0,0,0,.29.29l-.58.58a92.13,92.13,0,0,0-.58.58.51.51,0,0,0-.58.58h-.29c0,.19,0,.29.14.29s.14-.1.14-.29l-.58.58a1.28,1.28,0,0,1-.14.58q-.15.29-.43,0l-.29.58a.26.26,0,0,0-.29.29.84.84,0,0,1-.29.58l-.58.58q-.58.58-.87.29v.58l-.58.29v.29l-1.44,1.73H383a1.85,1.85,0,0,0-.87,1.16.26.26,0,0,1-.29.29l-.58.29v.29l-.87,1.16L378.92,215l-.58.29a.26.26,0,0,1-.29.29l-.29.29a3.65,3.65,0,0,1-1,1.16,3.57,3.57,0,0,0-1,1.16.26.26,0,0,1-.29.29l-.58.29-1.73,2.31c-.39,0-.58.1-.58.29-.19,0-.29.19-.29.58a3.41,3.41,0,0,0-1.73,2l-3.18,4-.58.58-.87,1.16-2.31,2.89-1.44,1.44L361,235.26l-2.6,2.89a10.51,10.51,0,0,1-1.73,2,6.64,6.64,0,0,1-2.31,2.31l-1.16,1.44a8.19,8.19,0,0,0-1.73,1.45l-2.31,2.31-1.44,1.16-2.31,1.73L343.65,252l-2,1.44-1.16.87c-.77.39-1.49.77-2.17,1.16s-1.21.67-1.59.87a5.49,5.49,0,0,0-1.3.58,4.37,4.37,0,0,0-.72.58l-3.18,1.16-1.16.58a2.31,2.31,0,0,1-1.44.29l-2.31.87h-.29l-1.16-.29a11.39,11.39,0,0,1-4.34-1.73,7.23,7.23,0,0,1-2.6-2l-2.6-2.31-.58-1.16a10.94,10.94,0,0,1-2-2.89l-1.73-3.47a16.36,16.36,0,0,1-1.73-5.2l-.29-.87Zm6.94,17.92h0Zm6.36,5.2a.26.26,0,0,0,.29.29A.26.26,0,0,1,322.55,258.67Zm1.16.58h0Zm9.54-1.73h0Zm32.66-127.18h0Zm12.72,83v0h0Zm52-125.73-.58.58-2.6,2.31L426,91.61a.26.26,0,0,1-.29.29l-2,1.73h-.29a3.29,3.29,0,0,1-1.16,1.16,3.42,3.42,0,0,0-.87.58l-2,1.45-.87.58a.93.93,0,0,0-.87.58,9.25,9.25,0,0,1-2,.87.68.68,0,0,1-.58.72,3.85,3.85,0,0,1-.87.14.25.25,0,0,0,.29.29l-.87.58H413a4.51,4.51,0,0,1-1.73,1.16.26.26,0,0,1-.29.29.83.83,0,0,0-.58.29c-.19,0-.48.19-.87.58a2.26,2.26,0,0,0-.87.29q-.58.29-.87,0c0,.39-.1.58-.29.58L407,104a1.66,1.66,0,0,1-1.16.58,1.18,1.18,0,0,0-.87.29l-1.16.58h-.29l-.29.29a4.38,4.38,0,0,1-1.73.58,1.29,1.29,0,0,0-.58.14,2.32,2.32,0,0,0-.58.43h-.58c-.2,0-.25,0-.14.15s0,.14-.14.14l-2,.29a1.67,1.67,0,0,1-1.16.29h-.58a.66.66,0,0,0-.72-.14.65.65,0,0,1-.72-.14l-.29-.29-.29.29a1.69,1.69,0,0,0-1.16-.29h-.87l-.29-.58v.29h-1.16c-.39,0-.58-.09-.58-.29l-.87-.29c-.58,0-.87-.19-.87-.58h-.29c-.39-.19-.58-.38-.58-.58a.86.86,0,0,0-.29-.58,1.66,1.66,0,0,1-.29-1.16,5.39,5.39,0,0,1,.58-2.89c.58-1.73,1-2.79,1.16-3.18l.87-1.73.87-1.73q.28-.58,2.6-4.62l1.16-2,1.74-3.18.29-.58a6.8,6.8,0,0,0,1.16-1.73l.87-1.45A.26.26,0,0,1,398,80l.29-.87,1.74-2.6a6.87,6.87,0,0,0,1.16-1.73l1.44-2,.87-1.16,2.89-3.18,1.73-2.6.87-1.16a1.66,1.66,0,0,1,.58-1.16,6.34,6.34,0,0,1,4.62-2.6,1.18,1.18,0,0,0,.87-.29h2l.29.29h2l3.18.58a3.64,3.64,0,0,1,1.3.29,3.48,3.48,0,0,0,1.3.29h.29a2.34,2.34,0,0,0,1.73.58c.38.39.67.58.87.58h.87a.57.57,0,0,0,.14.43c.09.1.24,0,.43-.14h.58a.26.26,0,0,1-.29.29h0a.26.26,0,0,0,.29-.29l.87.58a1.19,1.19,0,0,1,.87.29l.58.29,1.16.29.58.58a1.19,1.19,0,0,1,.87.29l.58.29a.82.82,0,0,0,.58.29c.19,0,.38.19.58.58H437a1.17,1.17,0,0,0,.87.29l-.29.29a.26.26,0,0,0,.29.29c.77,0,1.25.19,1.44.58l.87,1.45a1.19,1.19,0,0,1,.29.87h.29v.58a.26.26,0,0,1-.29.29l.29.29v.87h-.29a.36.36,0,0,0,0,.58v.87h-.29v1.16a1.67,1.67,0,0,0-.29,1.16.36.36,0,0,0-.58,0,.81.81,0,0,1-.14,1,1.19,1.19,0,0,0-.43.72H439a1.34,1.34,0,0,0-.87,1.45l-.29-.29a4.71,4.71,0,0,1-2,2.89,1.8,1.8,0,0,0-.43.72c-.1.29-.25.43-.43.43h-.29a2.6,2.6,0,0,1-.87,1.3,2.8,2.8,0,0,0-.87,1h-.29v0l-.58.58-.87.87ZM390.77,98.83v0Zm5.78,8.67h0Zm1.16-21.39v0H398l.29-.58-.29.58Zm15.61,81.8h0Zm3.47-71.68h-.29a.26.26,0,0,1-.29.29.26.26,0,0,0-.29.29,6.19,6.19,0,0,0-2,1.16.26.26,0,0,0-.29.29.26.26,0,0,1,.29-.29,5.44,5.44,0,0,0,1.3-.58,4.51,4.51,0,0,0,.72-.58l.29-.29.29-.29Zm9-33.53h0Zm3.18,1.16v.29h.29Zm2,.29v0Zm3.18,1.73v0ZM435,82.65v0Zm3.18-13a.25.25,0,0,0,.29.29l.29-.29Zm.29,6.36a.26.26,0,0,0-.29.29A.26.26,0,0,0,438.46,76Z" transform="translate(-23.98 -48.83)"/><path class="cls-1" d="M376.31,222V215.9a15.26,15.26,0,0,0,.29-3.47,72.59,72.59,0,0,1,2.89-11.56l4.34-10.41a4.43,4.43,0,0,0,.58-1.73.26.26,0,0,1,.29-.29.84.84,0,0,0,.29-.58.83.83,0,0,1,.29-.58V187l.58-.58a.25.25,0,0,1-.29-.29h.29v-.29l.58-.87c0-.58.19-.87.58-.87a.26.26,0,0,0-.29-.29c.38-.38.58-.67.58-.87a.84.84,0,0,0,.29-.58.26.26,0,0,1,.29-.29,5.09,5.09,0,0,1,1.45-2.31h.29v-.29h-.29c.19,0,.29-.19.29-.58a.26.26,0,0,0,.29-.29.47.47,0,0,1,.29-.43.47.47,0,0,0,.29-.43.26.26,0,0,0,.29-.29v-.58h.58l.29-.87a12.33,12.33,0,0,1,1.16-1.73l.87-1.44c.38-.38.58-.67.58-.87l2.6-3.76,1.3-1.3a7.22,7.22,0,0,0,1.3-1.88.26.26,0,0,1,.29-.29,61,61,0,0,1,7.51-8.67l5.78-5.78a39.65,39.65,0,0,1,6.65-4.91,16.42,16.42,0,0,1,1.73-1,6.84,6.84,0,0,0,1.73-1.3h.29a34.66,34.66,0,0,1,5.49-2.31,31.23,31.23,0,0,1,8.09-2h5.2a8.72,8.72,0,0,0,2.6.29l4.34.87,2.89.58,2.31.58a31.89,31.89,0,0,1,6.07,3.18H461a1.68,1.68,0,0,1,1.16.58h.29q.28.29,3.76,2.89l3.18,3.76a33.52,33.52,0,0,1,4.34,8.09l1.44,3.76.87,2v.58l.29.87V167a.26.26,0,0,1-.29.29c.38.19.48.58.29,1.16a.26.26,0,0,1,.29.29v4.34h-.29v1.44H476v.58l-.29.58h0v.87l-.29.87-.29.58-.29.58-.58,2-1.16,3.18a1.67,1.67,0,0,1-.58,1.16l-.29,1.16a.26.26,0,0,1-.29.29l-.58,1.16-.87,1.44v.58a.25.25,0,0,1-.29-.29v.29h.29l-.58.87a.26.26,0,0,0-.29.29l-.87,1.45-.29.29c0,.19-.19.48-.58.87l-1.44,2.6-1.16,1.73-.29.58a.51.51,0,0,0-.58.58.26.26,0,0,1-.29.29l-.29.29-.29.58h-.29v.58l-.58.29a1.18,1.18,0,0,1-.29.87l-.58.58-.29.58-.87.87-1.16,1.44-.87.87-2,1.73-.29.29c0,.19-.19.29-.58.29v.29c-.19,0-.48.19-.87.58a1.66,1.66,0,0,1-1.16.58v.29l-.58.29c0,.19-.19.29-.58.29a.26.26,0,0,1-.29.29v.29a1.19,1.19,0,0,0-.87.29l-1.16.58-1.73.87q-2,.87-3.76,1.45l-3.18.29h-.58V215h-.87l-2,.29-2,.29a4,4,0,0,1-1.73-.29v0h-1.73a3.19,3.19,0,0,1-1.45-.29l-2.6-.58-1.73-.87a21.43,21.43,0,0,1-4-2.31l-3.18-2.6a1.64,1.64,0,0,1-1.16-.58l-1.73-1.73L415,209.83a72.58,72.58,0,0,0-4.34,11.27l-.29.58.29.87a9.35,9.35,0,0,0-.58,2.31l-.29,4.62a46.56,46.56,0,0,0,.58,6.07l.87,2,.87,1.16a.26.26,0,0,1,.29.29l2.89.29,3.76-.29a89.9,89.9,0,0,0,11.27-3.18c1.92-.58,3.18-1,3.76-1.16l7.23-3.76,4.34-2.6,6.65-5.2q9-6.65,16.19-13a12.44,12.44,0,0,1,2.89-2.31,4.71,4.71,0,0,1,3.47-1.16,2.73,2.73,0,0,1,1.73,1.44,4.68,4.68,0,0,1,.58,2,.26.26,0,0,1,.29.29,23.06,23.06,0,0,1-1.16,2.89l-1.16,1.44-3.47,5.2a141.44,141.44,0,0,1-17.34,20.81A91.84,91.84,0,0,1,443.08,250a66.89,66.89,0,0,1-13.87,6.94,42.07,42.07,0,0,1-13.3,2.31h-1.45a32.18,32.18,0,0,1-4.91-.29,24,24,0,0,0-4-.58l-1.73-.87a18,18,0,0,1-3.47-1.16,90.36,90.36,0,0,1-8.38-5.49,46.64,46.64,0,0,1-11.56-14.45,31.55,31.55,0,0,1-3.76-12.72Zm75.44-50-2.31.58-4.91,1.73-.58.29-2,1.73a21.13,21.13,0,0,0-5.2,4.62l-4.33,4.62a39.68,39.68,0,0,0-6.94,8.67l-1.73,2.6a1.3,1.3,0,0,0,.29,1.44q1.44,1.74,4.62,1.73h2l5.78-1.73,4.62-2.6q2-1.44,2.31-1.73v-.29a.51.51,0,0,0,.58-.58l1.73-2.6,3.47-6.07a22.5,22.5,0,0,0,2.6-10.69Zm-21.1,42.49h0Zm29.48-11.56v.29h0Zm1.45-.87v0Zm1.16-1.16h0Zm7.8,9.25h0Z" transform="translate(-23.98 -48.83)"/></svg>