<?xml version="1.0" encoding="utf-8"?>
<!-- Generator: Adobe Illustrator 21.1.0, SVG Export Plug-In . SVG Version: 6.00 Build 0)  -->
<svg version="1.1" id="Layer_1" xmlns="http://www.w3.org/2000/svg" xmlns:xlink="http://www.w3.org/1999/xlink" x="0px" y="0px"
	 viewBox="0 0 388 388" style="enable-background:new 0 0 388 388;" xml:space="preserve">
<style type="text/css">
	.st0{fill:#FFFFFF;}
</style>
<g>
	<path class="st0" d="M0,0v388h388V0H0z M364,364H24V24h340V364z"/>
	<g>
		<path class="st0" d="M256.4,68H131.6C96.5,68,68,96.5,68,131.6v124.8c0,35.1,28.5,63.6,63.6,63.6h124.8
			c35.1,0,63.6-28.5,63.6-63.6V131.6C320,96.5,291.5,68,256.4,68z M292.6,256.4c0,19.9-16.2,36.1-36.1,36.1H131.6
			c-19.9,0-36.1-16.2-36.1-36.1V131.6c0-19.9,16.2-36.1,36.1-36.1h124.8c19.9,0,36.1,16.2,36.1,36.1V256.4z"/>
		<path class="st0" d="M261,142.5c-8.5,0-15.4-6.9-15.4-15.4c0-8.5,6.9-15.4,15.4-15.4c8.5,0,15.4,6.9,15.4,15.4
			C276.3,135.7,269.4,142.5,261,142.5L261,142.5z"/>
		<path class="st0" d="M194,129.1c-35.8,0-64.9,29.1-64.9,64.9c0,35.8,29.1,64.9,64.9,64.9c35.8,0,64.9-29.1,64.9-64.9
			C258.9,158.2,229.8,129.1,194,129.1z M194,231.5c-20.7,0-37.5-16.8-37.5-37.5c0-20.7,16.8-37.5,37.5-37.5
			c20.7,0,37.5,16.8,37.5,37.5C231.5,214.7,214.7,231.5,194,231.5z"/>
	</g>
</g>
</svg>
