<?xml version="1.0" encoding="utf-8"?>
<!-- Generator: Adobe Illustrator 21.1.0, SVG Export Plug-In . SVG Version: 6.00 Build 0)  -->
<svg version="1.1" id="Calque_1" xmlns="http://www.w3.org/2000/svg" xmlns:xlink="http://www.w3.org/1999/xlink" x="0px" y="0px"
	 viewBox="0 0 453.5 238.2" style="enable-background:new 0 0 453.5 238.2;" xml:space="preserve">
<style type="text/css">
	.st0{fill:#FFFFFF;}
</style>
<title>Logo Fixie</title>
<path class="st0" d="M207,23.7l-0.1,0.1c-0.1,0.1-0.3,0.2-0.4,0.1l-2.4,0.6l-1.7,0.3h-0.6c-0.5,0.3-1.1,0.4-1.7,0.3h-0.9l-0.6,0.3
	l-5.8,0.6l-4,0.6l-3.8,0.3l-4.9,0.6c-1.1,0-2.1,0.1-3.2,0.3l-8.4,1.7l-9.3,1.7l-12.4,2.6l-2,0.6c-0.1,0.7-0.3,1.4-0.6,2
	c-0.4,0.5-0.9,0.9-1.4,1.2l-0.6,0.6c-0.5,0.7-0.8,1.5-0.9,2.3l-0.3,0.6c-1.3,3.1-2.8,6.1-4.6,9l-8.7,15.3l-2.3,4l-0.6,1.2
	c-0.4,0.4-0.6,0.7-0.6,0.9c-0.2,0.1-0.3,0.4-0.3,0.6c0,0.1-0.1,0.3-0.2,0.3c0,0,0,0-0.1,0v0.3l-0.6,0.6c-0.6,0.9-1.1,1.9-1.4,2.9
	l-0.3,0.3l-0.3,0.9c-0.4,0.4-0.6,0.9-0.6,1.4l-0.9,0.9l-1.4,2.6l-0.9,2l-5.8,10.7l-1.7,2.9c0,0.1-0.1,0.3-0.2,0.3c0,0,0,0-0.1,0
	h21.4c0,0.4,0.3,0.5,0.9,0.3h0.6v-0.3h4.6v-0.3h0.9c0,0.1-0.1,0.3-0.2,0.3c0,0,0,0-0.1,0h2.6c0.3,0,0.6-0.1,0.9-0.3h0.3l-0.3,0.3
	c1.1,0.1,2.1,0,3.2-0.3H144c0-0.2,0.2-0.3,0.6-0.3c0.4,0.4,0.7,0.6,0.9,0.6h2c0.9-0.1,1.8,0.1,2.6,0.6l0.3-0.3
	c0.2,0,0.3,0.1,0.3,0.3c0,0.2-0.1,0.3-0.3,0.3l0.6,1.2v-0.8c0.2,0.5,0.3,1,0.3,1.4l0.3,0.9c-0.2,0.6,0,1.2,0.6,1.4l-0.3,0.3
	l-0.3,0.6l-0.3-0.3c0.1,0,0.3-0.1,0.3-0.2c0,0,0,0,0-0.1h-0.3v0.3c0,0.1,0.1,0.3,0.2,0.3c0,0,0.1,0,0.1,0c-0.3,0-0.5,0.2-0.6,0.4
	c0,0.1,0,0.1,0,0.2c0,0.1-0.1,0.3-0.2,0.3c0,0,0,0-0.1,0h-0.3v0.3c0.3,0,0.5,0.2,0.6,0.4c0,0.1,0,0.1,0,0.2l-0.3,0.3l-0.6,0.6
	c0.4,0,0.6-0.1,0.6-0.3h0.6l-0.3-0.6c0.2,0,0.3-0.2,0.3-0.6c0.1,0,0.3-0.1,0.3-0.2c0,0,0,0,0-0.1v0.3c0,0.5-0.1,1-0.3,1.4l-0.3,1.7
	c-0.2-0.1-0.2-0.3-0.1-0.5c0,0,0-0.1,0.1-0.1l-0.6,0.3l-0.3-0.3l-0.3,0.6l0.6,0.3l0.6-0.3l-0.6,1.2l-0.6,1.2c-0.1,0-0.3,0.1-0.3,0.2
	c0,0,0,0,0,0.1h0.3c0,0.1-0.1,0.3-0.2,0.3c0,0,0,0-0.1,0c0,0.4-0.1,0.8-0.3,1.2v-0.3h-0.6c-0.3,0-0.5,0.2-0.6,0.4c0,0.1,0,0.1,0,0.2
	h0.3v0.3c0.2,0,0.3-0.2,0.3-0.6h0.6c-0.4,0.4-0.6,0.7-0.6,0.9l-0.3,0.6c0-0.2-0.2-0.5-0.6-0.9v0.6l0.6,0.3H148v0.3h-0.9v0.2
	c0,0.1-0.1,0.3-0.2,0.3c0,0,0,0-0.1,0v0.3c-0.2-0.2-0.3-0.1-0.3,0.3l0.3-0.3c0,0.4-0.1,0.6-0.3,0.6c-0.2,0.1-0.2,0.3-0.1,0.5
	c0,0,0,0.1,0.1,0.1l-0.3,0.3l-1.7,1.7l-2.3,1.2l-0.6,0.3l-0.6,0.3c-0.7,0.4-1.5,0.7-2.3,0.9c-0.5,0.3-1.1,0.5-1.7,0.6l-2.9,0.9
	l-5.8,1.4h-0.9c-1.3,0.4-2.6,0.8-3.9,1.2c-1.1,0.3-2.2,0.6-3.3,0.9c-2.3,0.6-4.6,1.1-6.9,1.4c-2,0.2-3.9,0.6-5.8,1.2l-7.8,1.7l-9,2
	c-1,0.3-2.1,0.5-3.2,0.6c-0.4,0.1-0.8-0.1-1.2-0.3l-0.9,2l-0.9,1.7c-0.2,0.8-0.6,1.6-1.2,2.3l-0.3,0.6l-0.9,2.3
	c-0.5,0.6-0.8,1.3-1.2,2l-0.6,1.7l-0.6,1.7l-1.2,2.3l-3.5,7.2l-0.6,1.2v-0.3c0,0.1-0.1,0.3-0.2,0.3c0,0,0,0-0.1,0
	c0,0.4-0.2,0.9-0.6,1.2l-0.3,0.6c-0.6,0.9-1.1,1.9-1.4,2.9l-0.6,0.9c-0.2,0.2-0.4,0.5-0.6,0.7c-0.2,0.3-0.3,0.6-0.3,1l-0.3,0.6
	c-0.4,0.4-0.7,0.8-0.9,1.3c-0.2,0.5-0.4,0.9-0.6,1.3v0.3l-1.2,1.7c-0.4,0.9-0.9,1.8-1.4,2.6v0.6c-0.6,0.7-1,1.5-1.4,2.4
	c-0.4,0.4-0.6,0.7-0.6,0.9c-0.2,0.2-0.4,0.5-0.4,0.9c-0.1,0.4-0.4,0.7-0.7,0.9l-2.3,4l-1.4,2.6l-0.8,1.8l-2.3,3.8l-2,3.2l-1.2,1.7
	c-1.3,1.9-2.1,3-2.3,3.2l-1.7,2.3l-1.4,1.7l-1.7,2.9c-0.6,0.6-1.1,1.2-1.4,2l-1.2,1.2v0.3c-0.4,0.4-0.6,0.7-0.6,0.9l-1.2,1.2
	l-2.3,3.5l-1.2,1.2l-1.1,1.7l-1.2,1.2c-0.2,0.6-0.6,1-1.2,1.2l-1.7,2l-2.3,2.6l-1.7,2l-2,2c-0.5,0.6-1.1,1.1-1.8,1.5v0.3
	c-1.1,0.6-2,1.4-2.9,2.3l-2.3,1.7l-0.9,0.6l-1.2,0.6l-3.2,1.7l-0.6,0.3l-2.3,0.9l-2.3,0.3c-0.8,0.2-1.5,0.3-2.3,0.3
	c-0.7,0-1.4-0.1-2-0.3l-2.3-0.3c-0.5-0.1-1-0.3-1.5-0.6l-1.2-0.3v-0.9c0-0.1-0.1-0.3-0.2-0.3c0,0-0.1,0-0.1,0l0.3-0.9l0.3-2.9
	c0.1-1.3,0.3-2.7,0.6-4l0.3-2v-0.3c1.7-4,3.6-9,5.5-15v-0.6c0.2-0.8,0.6-1.5,1.2-2v-0.3l18.5-36.4l7.5-14.2
	c6.7-12.7,14.1-27.3,22-43.7c4.8-8,9.1-16.3,13-24.9l3.5-7.2c1.6-2.9,3.1-5.9,4.3-9c3.1-5,5.3-8.8,6.6-11.3v-0.8l4.9-8.1
	c4.2-7.3,7.5-12.8,9.8-16.5l0.3-0.6L98,34.7L94.9,33c-1.5-0.7-3-1.4-4.3-2.3c-1.5-1.4-2.8-3.1-3.8-4.9l-0.3-0.9
	c0.1-1.7-0.1-3.3-0.6-4.9l-1.2-4.9c-0.2-1-0.3-2.1-0.3-3.2c-0.1-1.1,0-2.1,0.3-3.2c0.2-0.5,0.1-1.1-0.3-1.5c-0.2-0.6-0.2-1,0-1.2
	V4.9c0-0.9,0.3-1.7,0.9-2.5c0.4-0.8,1.2-1.3,2-1.6c0.7-0.1,1.5-0.2,2.2-0.4c1-0.3,2-0.2,3,0.1h1.2c0.9-0.2,1.9-0.3,2.9-0.3L97.1,0
	h0.3l-0.3,1.2c0.2,0.2,0.5,0.2,0.7,0.1c0.2-0.1,0.5,0,0.7,0.1h-0.3c0.6,0.2,1.3,0.3,2,0.3l0.6-0.3h0.9c0.5,0.2,1,0.3,1.4,0.3
	l-0.3-0.3c0.3-0.2,0.7-0.2,1-0.1c0.2,0.1,0.5,0.1,0.7,0.1h3.2c0.2-0.4,0.7-0.7,1.2-0.6h2v0.3l0.6-0.3c0.8-0.4,1.7-0.6,2.6-0.6h8.4
	c1.2,0,2.3,0.1,3.5,0.3l3.8,0.3c0.1,0,0.3,0.1,0.3,0.2c0,0,0,0,0,0.1h1.2c2.9,0.2,7.1,0.3,12.7,0.3h44.5c1.7,0,3.5,0.1,5.2,0.3h7.8
	c1,0.2,2.1,0.3,3.2,0.3c0.9,0,1.8,0.1,2.6,0.3h2.6c1.3,0.2,2.7,0.3,4,0.3c1.1,2.1,1.7,4.5,1.7,6.9c0,1.8-0.3,3.5-0.9,5.2
	c-0.6,1.9-1.4,3.7-2.3,5.5c-0.3,0.2-0.8,0.3-1.2,0.3c0,0.1-0.1,0.3-0.2,0.3c0,0,0,0-0.1,0l-2.6,0.6c-0.2-0.4-0.5-0.4-0.9,0h0.9
	c-0.3,0-0.6,0.1-0.9,0.3h-0.6c-0.2-0.4-0.5-0.4-0.9,0c-0.3,0.2-0.8,0.3-1.2,0.3c-0.5,0.2-1.1,0.3-1.7,0.3v0.6c0,0.2,0.1,0.4,0.3,0.6
	c0-0.2,0.1-0.3,0.4-0.3s0.4-0.1,0.4-0.3c0.2,0,0.4,0,0.6-0.1c0.3-0.1,0.6,0,0.9,0.1c0-0.1-0.1-0.3-0.2-0.3c0,0,0,0-0.1,0
	c-0.1,0-0.3-0.1-0.3-0.2c0,0,0-0.1,0-0.1h0.9l0.6,0.3h0.6c0.4,0,0.8-0.1,1.2-0.3v-0.6l1.2-0.3c0.6,0.4,1.3,0.3,1.7-0.3h0.6l-0.6,0.6
	h0.3l-1.2,1.7h-0.3c-0.5,0-1,0.1-1.4,0.3c-0.5,0.2-1,0.3-1.4,0.3L207,23.7z M41,207.8l-0.6,1.2C40.8,208.7,41,208.3,41,207.8z
	 M44.5,203.8v-0.3h-0.3l-0.3,0.6c-0.1,0-0.3,0.1-0.3,0.2c0,0,0,0,0,0.1l-0.3,0.6c-0.1,0-0.3-0.1-0.3-0.2c0,0,0-0.1,0-0.1
	c-0.2,0-0.2,0.1,0,0.3v0.3l-0.9,0.9l-0.6,0.9c-0.2,0-0.3,0.2-0.3,0.6v0.3l1.4-2c0.2,0,0.3-0.2,0.3-0.6l0.9-0.9L44.5,203.8z
	 M44.8,205.8v-0.3h-0.3v0.3H44.8z M45.1,202.3l-0.3,0.6v0.2c0.1,0,0.3-0.1,0.3-0.2c0,0,0,0,0-0.1V202.3z M45.7,200.3v-0.3h-0.3
	C45.4,200.2,45.5,200.3,45.7,200.3C45.6,200.3,45.6,200.3,45.7,200.3L45.7,200.3z M52.6,191.7c-0.2,0.3-0.4,0.7-0.6,1
	c-0.2,0.3-0.4,0.7-0.6,1c-0.1,0-0.3,0.1-0.3,0.2c0,0,0,0,0,0.1l-0.9,1.4c-0.3,0.3-0.6,0.7-0.6,1.2l-0.6,0.3c-0.3,0.3-0.6,0.6-0.7,1
	c-0.1,0.3-0.2,0.5-0.4,0.7h-0.3l-0.3,0.6v-0.3l-0.6,0.6h0.3c0,0.2-0.2,0.5-0.6,0.9l-0.9,1.2v0.3c0.5-0.4,0.9-0.9,1.2-1.4l0.9-1.2
	c0.8-0.8,1.5-1.6,2-2.6l0.9-1.2l0.9-1.7l0.9-0.9L52.6,191.7z M46.8,202.7c-0.2,0-0.3,0.2-0.3,0.6L46.8,202.7z M49,195
	c-0.1,0.1,0,0.1,0.1,0.1v-0.3L49,195z M54.4,189.3l-0.3,0.3c0,0.1-0.1,0.3-0.2,0.3c0,0,0,0-0.1,0c-0.2-0.2-0.3-0.1-0.3,0.3
	c-0.2,0.2-0.3,0.6-0.3,0.9l-0.3,0.3h0.3v-0.3c0.3-0.3,0.6-0.7,0.6-1.2H54L54.4,189.3z M57.8,184.1c-0.3,0-0.5,0.2-0.6,0.4
	c0,0.1,0,0.1,0,0.2L57.8,184.1z M58.7,182.7c-0.3,0-0.5,0.2-0.6,0.4c0,0.1,0,0.1,0,0.2l-0.3,0.3h0.3
	C58.1,183.3,58.3,183.1,58.7,182.7L58.7,182.7z M58.1,182.4c0.1,0,0.3-0.1,0.3-0.2c0,0,0,0,0-0.1h-0.3V182.4z M78.4,145.4l-1.2,2
	l-0.9,1.2c0,0.4-0.1,0.8-0.3,1.2l-0.6,1.2c-0.3,0.5-0.6,0.9-0.9,1.4c-0.2,0.3-0.3,0.6-0.3,0.9l-0.9,1.4l-0.9,1.7
	c-0.3,0.8-0.8,1.5-1.4,2c0,0.4-0.1,0.6-0.3,0.6c-0.2,0.2-0.3,0.6-0.3,0.9v0.4c-0.2,0-0.5,0.5-0.9,1.4h-0.3c-0.1,0.8-0.5,1.5-1.2,2
	c0,0.2-0.1,0.2-0.3,0h-0.3c0.2-0.2,0.4-0.4,0.6-0.6h0.3l0.3-0.9c0.2-0.1,0.2-0.4,0.1-0.5c0,0,0,0-0.1-0.1c0.1,0,0.3-0.1,0.3-0.2
	c0,0,0,0,0-0.1c0.2-0.2,0.3-0.6,0.3-0.9l0.3-0.6l0.6-0.6l0.3-0.6v-0.3c-0.5,0.4-0.8,0.9-0.9,1.4c0,0.1-0.1,0.3-0.2,0.3
	c0,0,0,0-0.1,0l-0.6,0.6l-0.3,1.2c-0.8,1.2-1.5,2.4-2,3.8v0.3l-0.3,0.3l-0.3,0.9c-0.1,0-0.3,0.1-0.3,0.2c0,0,0,0,0,0.1l-0.9,1.2
	l-0.6,1.2v0.3c0.1,0,0.3-0.1,0.3-0.2c0,0,0,0,0-0.1l1.2-1.2v0.3c0,0.4-0.1,0.7-0.3,1c-0.2,0.2-0.3,0.5-0.3,0.7
	c-0.4,0.4-0.6,0.7-0.6,0.9c-0.1,0-0.3,0.1-0.3,0.2c0,0,0,0,0,0.1c0,0.1-0.1,0.3-0.2,0.3c0,0,0,0-0.1,0c-0.3,0.3-0.6,0.7-0.6,1.2
	c0,0.3-0.1,0.6-0.3,0.9l-0.3,0.6v0.6l-0.6,0.9c-0.3,0.3-0.6,0.7-0.6,1.2l-0.9,0.9c0,0.1-0.1,0.3-0.2,0.3c0,0,0,0-0.1,0
	c0.2,0,0.1,0.2-0.3,0.6c0.2,0.2,0.2,0.3,0.1,0.4c-0.1,0.1-0.2,0.3-0.1,0.4c-0.1,0-0.3,0.1-0.3,0.2c0,0,0,0,0,0.1l-0.9,1.4v0.3
	l-0.3,0.6c0-0.1,0.1-0.3,0.2-0.3c0,0,0,0,0.1,0c0.3-0.6,0.7-1.2,1.2-1.7l0.3-1.2l2-3.2l1.8-2.9L65,172l0.9-2c0.2-0.4,1-1.7,2.3-4
	l0.3-0.9l1.4-3l4-7.2l0.6-1.7l0.3-0.6c0-0.1,0.1-0.3,0.2-0.3c0,0,0,0,0.1,0l2-4.3l1.2-2.3L78.4,145.4z M60.4,177.2v-0.3l0.3-0.3
	c0.4-0.1,0.6-0.5,0.6-0.9v-0.3l0.3-0.6l0.9-1.4c-0.8,0.4-1.1,0.9-0.9,1.4l-0.6,0.3C60.9,175.9,60.7,176.5,60.4,177.2z M61,174.6v0.3
	h0.3v-0.3H61z M61.6,179.8l-0.6,0.9C61.4,180.3,61.6,180,61.6,179.8L61.6,179.8z M62.4,172l0.3,0.6c0.1,0,0.3-0.1,0.3-0.2
	c0,0,0,0,0-0.1V172l0.9-0.6v-0.9l-0.6,0.3L62.4,172z M63.9,175.7l-0.6,0.6h0.3L63.9,175.7z M63.6,176.9l0.3-0.6l-0.6,0.6H63.6z
	 M63.6,170.2h0.3v-0.3h-0.3V170.2z M64.8,174.2v-0.6c-0.4,0.4-0.5,0.7-0.3,0.9c-0.2,0-0.3,0.2-0.3,0.6c-0.1,0-0.3,0.1-0.3,0.2
	c0,0,0,0,0,0.1h0.3v0.6c0-0.4,0.1-0.6,0.3-0.6v-0.2l-0.3,0.3v-0.3c0.2,0,0.2,0,0.1-0.1c-0.1-0.1,0-0.2,0.1-0.4L64.8,174.2z
	 M73.1,158c0,0.1-0.1,0.3-0.2,0.3c0,0,0,0-0.1,0l-0.3,0.6l-0.3,0.6l-0.6,0.6v-0.3c0,0.1-0.1,0.3-0.2,0.3c0,0,0,0-0.1,0h0.3l-0.3,0.6
	v-0.3l-0.3,0.6c0-0.1,0.1-0.3,0.2-0.3c0,0,0,0,0.1,0v0.3l-1.2,2c0,0.1-0.1,0.3-0.2,0.3c0,0,0,0-0.1,0c-0.1,0-0.3,0.1-0.3,0.2
	c0,0,0,0,0,0.1h0.3v0.3h-0.3l-0.3,0.9l-0.3,0.3c-0.3,1-0.8,2-1.4,2.9l-0.6,1.2l-0.6,1.2c-0.2,0.2-0.3,0.6-0.3,0.9l-0.9,1.4v0.3H65
	v0.6h0.3c0.2,0,0.3-0.1,0.3-0.3c0-0.2-0.1-0.3-0.3-0.3l0.3-0.3c0-0.2,0.2-0.5,0.6-0.9l0.3-0.6v0.6c0.4-0.2,0.6-0.7,0.6-1.4l0.3-0.3
	c0.2,0,0.3-0.2,0.3-0.6v-0.3c0-0.4,0.1-0.6,0.3-0.6c0.2,0.2,0.3,0.2,0.3,0h-0.3l-0.3-0.6c0.4,0,0.6-0.1,0.6-0.3l0.9-1.4h0.3L70,165
	l0.3-1.2c0,0.2,0.2,0.3,0.6,0.3l-0.3-0.3v-0.6l0.6,0.3l0.3-0.9h-0.6c0.4-0.4,0.7-0.9,0.9-1.4c0.2-0.5,0.5-1,0.9-1.4
	c0.1-0.5,0.3-1,0.6-1.4L73.1,158z M73.7,157.5v-0.6c-0.1,0-0.3,0.1-0.3,0.2c0,0,0,0,0,0.1c0,0.1-0.1,0.3-0.2,0.3c0,0,0,0-0.1,0
	L73.7,157.5z M74.6,155.7c-0.2-0.2-0.3-0.2-0.3,0H74.6z M82.1,139.5l-0.3-0.3v0.3H82.1z M83.3,136.7c-0.1,0.3-0.2,0.5-0.4,0.7
	c-0.3,0.3-0.3,0.5-0.1,0.7l0.6-1.2L83.3,136.7z M83.8,136.1v-0.3c-0.1,0-0.3,0.1-0.3,0.2c0,0,0,0,0,0.1H83.8z M107.8,97.6v-0.6
	l-0.6,0.6H107.8z M108.1,96.8v-0.3c0,0.1-0.1,0.3-0.2,0.3c0,0,0,0-0.1,0H108.1z M115.4,85.5l-0.6,0.6c-0.2,0.4-0.7,1.3-1.4,2.6
	l-0.3,0.6c-0.1,0.8-0.5,1.5-1.2,2l0.9-1.4v-0.6l-0.3,0.6l-0.6,1.2l-0.3,0.6c-0.4,0.4-0.6,0.7-0.6,0.9c0,0.1-0.1,0.3-0.2,0.3
	c0,0,0,0-0.1,0l-0.3,0.9l-0.6,0.9l-0.9,1.7h0.3c0,0.2-0.2,0.5-0.6,0.9c-0.2,0-0.3,0-0.4,0.1c-0.1,0.1,0,0.2,0.1,0.4
	c0-0.4,0.1-0.6,0.3-0.6l-0.3,0.9h0.6v-0.3c0.3-0.6,0.7-1.2,1.2-1.7v-0.3l0.3-0.6l0.6-0.9h0.3l0.3-0.6c0-0.5,0.2-1.1,0.6-1.4
	c0-0.1,0.1-0.3,0.2-0.3c0,0,0,0,0.1,0h-0.3l0.3-0.6c0.1,0,0.3-0.1,0.3-0.2c0,0,0,0,0-0.1l0.6-1.2l1.2-2.3c0.2-0.2,0.3-0.6,0.3-0.9
	l0.6-0.9L115.4,85.5z M108.4,95.9c0.1,0,0.3-0.1,0.3-0.2c0,0,0,0,0-0.1c0-0.1,0.1-0.3,0.2-0.3c0,0,0,0,0.1,0l0.3-0.9
	c-0.1,0-0.3,0.1-0.3,0.2c0,0,0,0,0,0.1c0,0.1-0.1,0.3-0.2,0.3c0,0,0,0-0.1,0C108.7,95.4,108.6,95.7,108.4,95.9L108.4,95.9z
	 M109.6,93.3v0.3c0.1,0,0.3-0.1,0.3-0.2c0,0,0,0,0-0.1H109.6z M110.2,92.7l0.6-0.6L110.2,92.7z M113.6,87.8c0.4,0,0.6-0.3,0.6-0.9
	C113.8,87.4,113.6,87.7,113.6,87.8L113.6,87.8z M114.8,85.5c0.2,0,0.3-0.2,0.3-0.6L114.8,85.5z M116,84.3c0,0.1-0.1,0.3-0.2,0.3
	c0,0,0,0-0.1,0h0.3V84.3z M116.5,83.2L116.5,83.2L116.5,83.2z M119.4,78l-0.3,0.6C119.3,78.6,119.4,78.4,119.4,78L119.4,78z
	 M120,77.4l-0.3,0.3h0.3V77.4z M126,65.9l-0.3,0.3h0.3V65.9z M126,100.6L126,100.6z M130.4,98.9h1.2c0.2,0,0.3,0,0.4,0.1
	c0.1,0.1,0.2,0,0.4-0.1C132.2,98.7,131.5,98.7,130.4,98.9L130.4,98.9z M133,98.9c0.3,0,0.6-0.1,0.9-0.3H133V98.9z M133,99.7h0.3
	v-0.3H133V99.7z M134.1,99.4h-0.3v0.3h0.3V99.4z M135.6,100l4.3-0.3H137v-0.3h0.6c-0.5-0.4-1.2-0.4-1.7,0h-0.3L135.6,100L135.6,100z
	 M138.8,98.6h0.6v-0.3h-0.6V98.6z M141.4,98.3c1.9,0.4,3.3,0.4,4,0c-0.1-0.2-0.4-0.2-0.6-0.1c-0.2,0.1-0.4,0.1-0.6,0.1H141.4z
	 M145.4,115.9v-0.3l-0.6,0.3H145.4z M145.6,115c0,0.2,0.1,0.2,0.3,0H145.6z M146.4,98.1c-0.1-0.1-0.2,0-0.4,0.1h0.9
	C146.7,98.3,146.5,98.3,146.4,98.1L146.4,98.1z M146.8,113.9h-0.6l0.3,0.3c0.1,0,0.3,0,0.3-0.2C146.8,114,146.8,113.9,146.8,113.9
	L146.8,113.9z M147.4,98.3h0.7c-0.1-0.2-0.3-0.2-0.5-0.1C147.5,98.2,147.4,98.2,147.4,98.3L147.4,98.3z M149.7,109.8l-0.6-0.3
	c-0.2,0.3-0.3,0.8-0.3,1.2h-0.3c0,0.2-0.2,0.5-0.6,0.9h0.3c0,0.1-0.1,0.3-0.2,0.3c0,0,0,0-0.1,0h0.3v-0.3l0.6-0.9L149.7,109.8z
	 M148.2,98.3l0.9,0.6c0.2,0.2,0.3,0.2,0.3,0c0.2,0.4,0.5,0.7,0.9,0.9c-0.4-0.4-0.6-0.7-0.6-0.9C149.3,98.5,148.8,98.3,148.2,98.3
	L148.2,98.3z M150.8,102.6c0.4-0.4,0.5-0.7,0.3-0.9C151.2,102.1,151.1,102.4,150.8,102.6L150.8,102.6z M186.4,26h-1.2v-0.3
	c-0.3,0-0.6,0.1-0.9,0.3l0.6,0.3h-0.6v0.3l0.6-0.3C185.5,26.4,186,26.3,186.4,26L186.4,26z M190.4,25.1c-0.5-0.1-1,0-1.4,0.3
	c0.5,0.1,1.1,0,1.6-0.3L190.4,25.1z M189.8,25.7h-0.3V26h0.3V25.7z M192.1,25.4l-1.2,0.3h1.2V25.4z M191.8,25.1L191.8,25.1z M193,24
	c-0.1-0.2-0.4-0.2-0.5-0.1c0,0,0,0-0.1,0.1H193z M193.3,25.1l0.3-0.3c0.1-0.2,0.4-0.3,0.6-0.3c-0.2-0.2-0.7-0.2-1.4,0
	c0,0.1,0.1,0.3,0.2,0.3c0,0,0.1,0,0.1,0L193.3,25.1z M193,25.4h-0.3v0.3h0.3V25.4z M206.9,19.9l0.6-0.3h-0.6V19.9z M209.5,4l1.2-0.3
	c0.1,0.2,0.3,0.2,0.5,0.1c0,0,0.1,0,0.1-0.1h-0.6c-0.4-0.1-0.8,0-1.1,0.3L209.5,4z M209.5,4.6h2.9c-0.9,0-1.8-0.1-2.6-0.3L209.5,4.6
	z M209.5,22.8h0.9c-0.1-0.4-0.4-0.4-0.8,0L209.5,22.8z M211.2,5.5h-0.9c0.5,0.2,0.8,0.2,1,0L211.2,5.5z M214.1,5.5h-1.7
	c0.1,0.4,0.5,0.6,0.9,0.6L214.1,5.5z M214.7,5.8h-0.6v0.3h0.6V5.8z"/>
<path class="st0" d="M116.2,186.7l0.3-2.6c0.5-3.4,1.3-6.8,2.3-10.1c0.8-2.5,1.5-4.7,2.3-6.6c0.8-1.9,1.4-3.7,2-5.2
	c3.3-7.9,7.2-16.3,11.9-25.1c0.4-0.6,0.5-1,0.3-1.2c0-0.1,0.1-0.3,0.2-0.3c0,0,0,0,0.1,0c0.9-1.1,1.5-2.4,2-3.8
	c1.7-3.5,5.9-10.6,12.4-21.4l2.3-3.8l1.7-2.6l0.6-0.9l0.6-0.6c0.2-0.1,0.2-0.4,0.1-0.5c0,0,0,0-0.1-0.1l0.3-0.3l0.9-1.2
	c0-0.4,0.1-0.6,0.3-0.6l0.6-0.9l1.7-2.9c0.3-0.7,0.7-1.4,1.2-2l0.6-1.2l2.9-5.5l0.6-0.6c0.6-0.6,1-0.8,1.2-0.6l2.3-2.9l2.3-2.6
	l1.7-1.4c0.8-0.6,1.8-1.1,2.9-1.2c1.5,0.1,2.9,0.3,4.3,0.6l1.2,0.3h0.3c1,0.4,2.1,0.7,3.2,1c1.2,0.3,2.4,0.7,3.5,1.3l4.6,2.6
	c1.4,0.8,2.8,1.8,4,2.9l1.2,0.9c0.6,0.6,1.2,1.1,2,1.4c0.6,0.3,1.2,0.7,1.7,1.2c1.2,0.7,2.1,1.8,2.3,3.2c0,0.3,0.1,0.6,0.3,0.9
	c-0.4,0.4-0.6,0.9-0.6,1.4c-0.5,1.1-1.3,2-2.3,2.6l-0.9,1.2l-0.9,0.9l-2,2.6c-1.5,2.6-3.3,5-5.2,7.2l-9,11.9c-0.8,1-1.5,2-2,3.2
	c-0.6,1-1.1,1.8-1.6,2.6s-0.9,1.4-1.3,2l-0.3,0.6c-1.1,1.1-2.1,2.4-2.9,3.8c-2.3,3.5-3.9,6.1-4.9,7.8l-7.8,12.1
	c-3.1,5-5.5,8.8-7.2,11.3c-0.3,0.6-0.7,1.2-1.2,1.7l-0.3,0.3c-0.5,1.1-1.2,2.2-2,3.2c-1.6,2-2.8,4.3-3.8,6.6c-0.1,0-0.3,0.1-0.3,0.2
	c0,0,0,0,0,0.1l0.6-0.3c6.6-3.4,12.8-7.6,18.5-12.4l4.9-3.8c9.4-7.5,20.3-16.8,32.7-27.8l11-10.7c0.6-0.4,1.1-0.9,1.4-1.4
	c0.5-0.1,0.8-0.4,0.9-0.9l0.3-0.3c0-0.2,0.2-0.5,0.6-0.9c0.1,0,0.3-0.1,0.3-0.2c0,0,0,0,0-0.1l1.2-1.7h0.3l1.4,0.6v0.9l-0.3,1.4
	l-0.3,0.9c-0.2,0.8-0.5,1.6-0.9,2.3v0.3c0,0.1-0.1,0.3-0.2,0.3c0,0,0,0-0.1,0l-0.3,0.6c-0.2,0.2-0.2,0.3-0.1,0.4s0,0.1-0.1,0.1
	c-0.3,1-0.7,2-1.2,2.9h-0.3c0,0.5-0.2,1.1-0.6,1.4l0,0l-1.2,2c-0.1,0-0.3,0.1-0.3,0.2c0,0,0,0,0,0.1l-1.7,2.6
	c-0.2,0.8-0.7,1.4-1.4,1.7c-0.1,0-0.3,0.1-0.3,0.2c0,0,0,0,0,0.1c0,0.2-0.1,0.4-0.3,0.6l-0.6,0.6l-0.6,0.6c0,0.4-0.2,0.7-0.6,0.9
	c-0.1,0-0.3,0.1-0.3,0.2c0,0,0,0,0,0.1h0.3l-0.6,0.3c-0.2,0.2-0.3,0.4-0.4,0.7c-0.1,0.3-0.4,0.6-0.7,0.7l-0.9,1.4
	c-0.3,0-0.5,0.2-0.6,0.4c0,0.1,0,0.1,0,0.2c-0.6,0.6-1,0.9-1.2,0.9v0.3l-0.9,1.2l-0.6,0.6c-0.1,0.6-0.6,1.1-1.1,1.3
	c-0.3,0.8-0.8,1.5-1.4,2c-0.1,0-0.3,0.1-0.3,0.2c0,0,0,0,0,0.1l-0.3,0.3h-0.3c0.1,0,0.3,0.1,0.3,0.2c0,0,0,0,0,0.1
	c-0.1,0-0.3,0.1-0.3,0.2c0,0,0,0,0,0.1l-0.9,0.9l-0.6,0.6l0,0c-0.1,0.5-0.4,0.8-0.9,0.9v0.3c0,0.2-0.3,0.3-0.9,0.3
	c0,0.1,0.1,0.3,0.2,0.3c0,0,0.1,0,0.1,0l-0.6,0.6c-0.2,0.2-0.4,0.4-0.6,0.6c-0.3,0-0.5,0.2-0.6,0.4c0,0.1,0,0.1,0,0.2h-0.3
	c0,0.2,0,0.3,0.1,0.3s0.1-0.1,0.1-0.3l-0.6,0.6c0,0.2,0,0.4-0.1,0.6c-0.1,0.2-0.2,0.2-0.4,0l-0.3,0.6c-0.1,0-0.3,0.1-0.3,0.2
	c0,0,0,0,0,0.1c0,0.2-0.1,0.4-0.3,0.6l-0.6,0.6c-0.4,0.4-0.7,0.5-0.9,0.3v0.6l-0.6,0.3v0.3l-1.4,1.7h-0.3c-0.4,0.3-0.7,0.7-0.9,1.2
	c0,0.1-0.1,0.3-0.2,0.3c0,0,0,0-0.1,0l-0.6,0.3v0.3l-0.9,1.2l-1.4,1.4l-0.6,0.3c0,0.1-0.1,0.3-0.2,0.3c0,0,0,0-0.1,0l-0.3,0.3
	c-0.2,0.5-0.6,0.8-1,1.2c-0.4,0.3-0.8,0.7-1,1.2c0,0.1-0.1,0.3-0.2,0.3c0,0,0,0-0.1,0l-0.6,0.3l-1.7,2.3c-0.4,0-0.6,0.1-0.6,0.3
	c-0.2,0-0.3,0.2-0.3,0.6c-0.8,0.4-1.4,1.1-1.7,2l-3.2,4l-0.6,0.6l-0.9,1.2l-2.3,2.9l-1.4,1.4l-1.2,1.2l-2.6,2.9
	c-0.5,0.7-1.1,1.4-1.7,2c-0.6,1-1.4,1.7-2.3,2.3l-1.2,1.4c-0.6,0.4-1.2,0.9-1.7,1.4l-2.3,2.3l-1.4,1.2l-2.3,1.7l-1.8,1.5l-2,1.4
	l-1.2,0.9c-0.8,0.4-1.5,0.8-2.2,1.2s-1.2,0.7-1.6,0.9c-0.5,0.1-0.9,0.3-1.3,0.6c-0.3,0.2-0.5,0.4-0.7,0.6l-3.2,1.2l-1.2,0.6
	c-0.4,0.3-0.9,0.4-1.4,0.3l-2.3,0.9h-0.3l-1.2-0.3c-1.6-0.3-3-0.9-4.3-1.7c-1-0.5-1.9-1.1-2.6-2l-2.6-2.3l-0.6-1.2
	c-0.8-0.8-1.5-1.8-2-2.9l-1.7-3.5c-0.9-1.6-1.5-3.4-1.7-5.2l-0.3-0.9L116.2,186.7z M123.1,204.6L123.1,204.6z M129.5,209.8
	c0,0.1,0.1,0.3,0.2,0.3c0,0,0,0,0.1,0C129.6,210.2,129.5,210.1,129.5,209.8C129.5,209.9,129.5,209.9,129.5,209.8L129.5,209.8z
	 M130.7,210.4L130.7,210.4z M140.2,208.7L140.2,208.7z M172.9,81.5L172.9,81.5z M185.6,164.5L185.6,164.5L185.6,164.5z M237.6,38.8
	l-0.6,0.6l-2.6,2.3l-1.5,1.2c0,0.1-0.1,0.3-0.2,0.3c0,0,0,0-0.1,0l-2,1.7h-0.3c-0.3,0.5-0.7,0.9-1.2,1.2c-0.3,0.1-0.6,0.3-0.9,0.6
	l-2,1.4l-0.9,0.6c-0.4,0-0.7,0.2-0.9,0.6c-0.6,0.4-1.3,0.7-2,0.9c0,0.4-0.2,0.7-0.6,0.7c-0.3,0.1-0.6,0.1-0.9,0.1
	c0,0.1,0.1,0.3,0.2,0.3c0,0,0.1,0,0.1,0l-0.9,0.6H220c-0.5,0.5-1.1,0.9-1.7,1.2c0,0.1-0.1,0.3-0.2,0.3c0,0,0,0-0.1,0
	c-0.2,0-0.4,0.1-0.6,0.3c-0.2,0-0.5,0.2-0.9,0.6c-0.3,0-0.6,0.1-0.9,0.3c-0.4,0.2-0.7,0.2-0.9,0c0,0.4-0.1,0.6-0.3,0.6l-0.6,0.3
	c-0.3,0.3-0.7,0.6-1.2,0.6c-0.3,0-0.6,0.1-0.9,0.3l-1.2,0.6h-0.3l-0.3,0.3c-0.5,0.3-1.1,0.5-1.7,0.6c-0.2,0-0.4,0-0.6,0.1
	c-0.2,0.1-0.4,0.3-0.6,0.4h-0.6c-0.2,0-0.2,0-0.1,0.2s0,0.1-0.1,0.1l-2,0.3c-0.3,0.2-0.8,0.3-1.2,0.3h-0.6c-0.2-0.2-0.5-0.2-0.7-0.1
	c-0.2,0.1-0.5,0.1-0.7-0.1l-0.3-0.3l-0.3,0.3c-0.3-0.2-0.8-0.3-1.2-0.3h-0.9l-0.3-0.6v0.3h-1.2c-0.4,0-0.6-0.1-0.6-0.3l-0.9-0.3
	c-0.6,0-0.9-0.2-0.9-0.6h-0.3c-0.4-0.2-0.6-0.4-0.6-0.6c0-0.2-0.1-0.4-0.3-0.6c-0.2-0.3-0.3-0.8-0.3-1.2c-0.1-1,0.1-2,0.6-2.9
	c0.6-1.7,1-2.8,1.2-3.2l0.9-1.7l0.9-1.7c0.2-0.4,1.1-1.9,2.6-4.6l1.2-2l1.7-3.2l0.3-0.6c0.5-0.5,0.9-1.1,1.2-1.7l0.9-1.4
	c0-0.1,0.1-0.3,0.2-0.3c0,0,0,0,0.1,0l0.3-0.9l1.7-2.6c0.5-0.5,0.9-1.1,1.2-1.7l1.4-2l0.9-1.2l2.9-3.2l1.7-2.6L216,16
	c0-0.4,0.2-0.9,0.6-1.2c1.1-1.5,2.7-2.5,4.6-2.7c0.3,0,0.6-0.1,0.9-0.3h2l0.3,0.3h2l3.2,0.6c0.4,0,0.9,0.1,1.3,0.3
	c0.4,0.2,0.9,0.3,1.3,0.3h0.3c0.5,0.4,1.1,0.6,1.7,0.6c0.4,0.4,0.7,0.6,0.9,0.6h0.9c0,0.2,0,0.3,0.1,0.4c0.1,0.1,0.2,0,0.4-0.1h0.6
	c0,0.1-0.1,0.3-0.2,0.3c0,0,0,0-0.1,0l0,0c0.1,0,0.3-0.1,0.3-0.2c0,0,0,0,0-0.1l0.9,0.6c0.3,0,0.6,0.1,0.9,0.3l0.6,0.3l1.2,0.3
	l0.6,0.6c0.3,0,0.6,0.1,0.9,0.3l0.6,0.3c0.1,0.2,0.4,0.3,0.6,0.3c0.2,0,0.4,0.2,0.6,0.6h0.3c0.2,0.2,0.6,0.3,0.9,0.3l-0.3,0.3
	c0,0.1,0.1,0.3,0.2,0.3c0,0,0.1,0,0.1,0c0.8,0,1.2,0.2,1.4,0.6l0.9,1.4c0.2,0.2,0.3,0.6,0.3,0.9h0.3v0.6c0,0.1-0.1,0.3-0.2,0.3
	c0,0,0,0-0.1,0l0.3,0.3v0.9h-0.3c-0.2,0.1-0.2,0.3-0.1,0.5c0,0,0,0.1,0.1,0.1v0.9h-0.3v1.2c-0.2,0.3-0.3,0.8-0.3,1.2
	c-0.1-0.2-0.4-0.2-0.5-0.1c0,0,0,0-0.1,0.1c0.2,0.3,0.1,0.7-0.1,1c-0.2,0.2-0.4,0.4-0.4,0.7h0.3c-0.6,0.2-1,0.8-0.9,1.4l-0.3-0.3
	c-0.3,1.2-1,2.2-2,2.9c-0.2,0.2-0.3,0.4-0.4,0.7c-0.1,0.3-0.2,0.4-0.4,0.4h-0.3c-0.2,0.5-0.5,1-0.9,1.3c-0.4,0.3-0.7,0.6-0.9,1h-0.3
	l0,0l-0.6,0.6l-0.9,0.9L237.6,38.8z M197.7,50L197.7,50z M203.5,58.7L203.5,58.7z M204.7,37.3L204.7,37.3h0.3l0.3-0.6l-0.3,0.6
	H204.7z M220.3,119.1L220.3,119.1z M223.7,47.4h-0.3c0,0.1-0.1,0.3-0.2,0.3c0,0,0,0-0.1,0c-0.1,0-0.3,0.1-0.3,0.2c0,0,0,0,0,0.1
	c-0.7,0.3-1.4,0.7-2,1.2c-0.1,0-0.3,0.1-0.3,0.2c0,0,0,0,0,0.1c0-0.1,0.1-0.3,0.2-0.3c0,0,0,0,0.1,0c0.5-0.1,0.9-0.3,1.3-0.6
	c0.3-0.2,0.5-0.4,0.7-0.6l0.3-0.3l0.3-0.3H223.7z M232.7,13.9L232.7,13.9z M235.9,15v0.3h0.3L235.9,15z M237.9,15.3L237.9,15.3z
	 M241,17L241,17z M241.9,33.8L241.9,33.8z M245.1,20.8c0,0.1,0.1,0.3,0.2,0.3c0,0,0.1,0,0.1,0l0.3-0.3H245.1z M245.4,27.2
	c-0.1,0-0.3,0.1-0.3,0.2c0,0,0,0,0,0.1c0.1,0,0.3,0,0.3-0.2C245.4,27.2,245.4,27.2,245.4,27.2L245.4,27.2z"/>
<path class="st0" d="M214.5,124.9c0.1,0,0.3-0.1,0.3-0.2c0,0,0,0,0-0.1h-0.3c-0.2-0.5-0.2-1.1-0.1-1.6c0.1-0.4,0.1-0.9-0.1-1.3
	c0.2-0.5,0.2-1.1,0.1-1.6c-0.1-0.4-0.1-0.9-0.1-1.3v-1.7c-0.2-1.3-0.3-2.7-0.3-4v-3.2l-0.3-0.9l0.3-0.6l0,0
	c-0.2-0.5-0.3-0.9-0.3-1.4c-0.2-0.1-0.2-0.4-0.1-0.6c0.1-0.2,0.1-0.4,0.1-0.6c0-0.2,0-0.3-0.1-0.4c-0.1-0.1,0-0.2,0.1-0.4v-0.6
	c0-0.1-0.1-0.3-0.2-0.3c0,0,0,0-0.1,0l0.6-0.3h-0.6c0.4-0.4,0.5-0.7,0.3-0.9c0.2-0.2,0.1-0.4-0.3-0.6c0.2-0.3,0.3-0.8,0.3-1.2h-0.3
	v-0.9l0.6-0.3l-0.6-0.3v-3.5c-0.2-0.2-0.2-0.3,0-0.4s0.2-0.2,0-0.4v-1.2l-0.3-1.7c0-0.7-0.1-1.4-0.3-2c0-0.8-0.1-1.6-0.3-2.3
	c0-0.9-0.1-1.8-0.3-2.6c-1-1-1.1-1.8-0.3-2.6c0.9-0.8,2-1.4,3.2-1.7c0.3,0,0.7-0.1,1-0.1c0.4-0.1,0.9-0.1,1.3,0.1h0.9
	c0.8-0.1,1.6,0,2.3,0.3c2.5,0.6,4.9,1.4,7.2,2.6c0.5,0.3,1.1,0.5,1.7,0.6c2.5,0.8,4.8,2,6.9,3.5l1.7,1.7l4,3.8
	c1.3,1.7,2.4,3.5,3.2,5.5c0.6,2.2,0.9,4.4,0.9,6.6c0.2,2.7,0.3,6.7,0.3,12.1c0,2.3,0.1,4.6,0.3,6.9l0.6,2l0.6-0.3l13-13.9
	c7.3-7.5,13.5-14.4,18.5-20.5l2-2c1.3-1.7,2.9-3.3,4.6-4.6c2.4-1.5,5.2-2.3,8.1-2.3l11.9-0.9c1.7,0,3.5-0.1,5.2-0.3
	c2.2,0,4.4-0.1,6.6-0.3c1.3-0.3,2.7-0.5,4-0.6l0.6-0.3h3.2c0.3,0.2,0.8,0.3,1.2,0.3c1.2,0.4,1.7,1,1.7,1.7v0.9
	c-0.5,1.7-1.3,3.4-2.3,4.9l-1.4,1.7l-4.9,4.9l-16.2,15.6l-11.4,10.3l-11,9.2c-0.3,0.7-0.8,1.2-1.4,1.4l-0.9,0.9h-0.3l-0.3,0.6H278
	c0,0.4-0.1,0.6-0.3,0.6h-0.3l-0.6,0.9h-0.3v0.3c-0.2,0-0.2,0.1-0.1,0.1s0,0.1-0.1,0.1l0,0c-0.4,0.8-0.9,1-1.4,0.6
	c0,0.4-0.1,0.6-0.3,0.6v0.3l-1.2,0.9h-0.3v0.3l0.3-0.3c0,0.2-0.2,0.5-0.6,0.9h-0.6v0.3h-0.6l0.3,0.3l-0.6,0.3v0.3
	c-0.2,0.2-0.3,0.2-0.4,0.1c-0.1-0.1-0.3-0.2-0.4-0.1l-0.3,0.6h0.6c-0.2,0.2-0.3,0.2-0.4,0.1c-0.1-0.1-0.3-0.2-0.4-0.1v0.9l-0.6-0.3
	c-0.2,0.2-0.3,0.6-0.3,0.9v0.2c-0.2,0-0.5,0.2-0.9,0.6c-0.4,0-0.6-0.1-0.6-0.3L267,143v0.3l-0.3,0.6c0,0.3-0.2,0.5-0.4,0.6
	c-0.1,0-0.1,0-0.2,0c0,0.1-0.1,0.3-0.2,0.3c0,0,0,0-0.1,0c-0.2,0-0.5,0-0.7,0.1c-0.1,0.2-0.2,0.5-0.1,0.7h-0.9v0.6
	c-0.1,0-0.3,0.1-0.3,0.2c0,0,0,0,0,0.1l-0.9,0.9h-0.3c0,0.3-0.2,0.5-0.4,0.6c-0.1,0-0.1,0-0.2,0h-0.3v0.3h-0.3l-0.3,0.6l-1.5,1.4
	h-0.6l-0.3,0.3c-0.2,0.2-0.4,0.4-0.6,0.6c0,0.2-0.1,0.4-0.3,0.4c-0.2,0.1-0.3,0.2-0.3,0.4c-0.2,0.2-0.5,0.2-0.9,0h0.3v0.3
	c0,0.1-0.1,0.3-0.2,0.3c0,0,0,0-0.1,0l-0.3,0.3l-1.7,1.7l-1.2,1.2l-0.3,0.3l-0.6,0.6c-0.4,0.4-0.7,0.6-0.9,0.6
	c-0.2,0.3-0.3,0.8-0.3,1.2v1.2l0.6,13.9c0.4,5,0.8,8.7,1.2,11c0.6,3.1,1.4,6.2,2.3,9.2l2.9,5.8c0.3,0,0.6,0.1,0.9,0.3
	c0.8,1.2,1.9,2.2,3.2,2.9c0,0.4,0.2,0.4,0.6,0h0.6l0.3,0.3l0.3-0.6h0.9l0.3-0.3h0.9c0.1-0.2,0.4-0.3,0.6-0.3c0.1,0,0.3-0.1,0.3-0.2
	c0,0,0,0,0-0.1l0.3,0.3l0,0c0.1,0,0.3-0.1,0.3-0.2c0,0,0,0,0-0.1c0.5,0,1.1-0.2,1.5-0.6l0.6,0.3v-0.3c0.4-0.4,0.7-0.6,0.9-0.6v0.3
	l0.9-0.6c0.3,0,0.5-0.2,0.6-0.4c0-0.1,0-0.1,0-0.2l1.2-1.2h0.6c0-0.1,0.1-0.3,0.2-0.3c0,0,0,0,0.1,0l0.9-0.9l0.6-0.6
	c0.5-0.2,0.9-0.3,1.4-0.3c0.2,0,0.4,0,0.6-0.1c0.2-0.1,0.4,0,0.6,0.1c0.6,0.2,1,0.6,1.2,1.2c0.2,0.6,0.3,1.3,0.3,2
	c-0.1,0.9-0.5,1.7-1.2,2.3l-0.3,0.6l-0.3,0.3c0.2,0,0.3,0.1,0.3,0.1s-0.1,0.1-0.3,0.1l-0.3,0.6c0,0.1-0.1,0.3-0.2,0.3c0,0,0,0-0.1,0
	l-0.3,0.3c0,0.2-0.3,0.6-0.9,1.2l-0.9,1.4c-0.2,0.2-0.6,0.3-0.9,0.3c0.4,0.4,0.4,0.6,0,0.6l0,0l-0.3,0.6h-0.6l0.3,0.3l-0.6,0.3
	l-0.3,0.6l-0.3-0.3l0.3,0.3c0,0.2-0.3,0.3-0.9,0.3v0.6l-1.2,0.9l-0.3,0.3c-0.1,0-0.3,0.1-0.3,0.2c0,0,0,0.1,0,0.1h-0.3v0.3l-0.6-0.3
	c0,0.4-0.1,0.6-0.3,0.6c0-0.2-0.1-0.3-0.3-0.3s-0.3,0.1-0.3,0.3c0,0,0,0,0,0l0.6,0.3h-0.6c-0.1,0-0.3,0.1-0.3,0.2c0,0,0,0.1,0,0.1
	h-0.3l-0.3,0.6c-0.3,0.2-0.8,0.3-1.2,0.3v-0.3l-0.3,0.3c0,0.5-0.3,1-0.9,1.2h-0.3l-0.3-0.3l-0.3,0.6h-0.6v0.3l-0.6,0.3
	c-0.4,0-0.6,0.1-0.6,0.3c-0.3,0-0.6,0.1-0.9,0.3c-0.6,0.1-1.2,0.3-1.7,0.6c-0.3,0-0.6-0.1-0.9-0.3c-0.2,0.6-0.8,0.9-1.4,0.7
	c-0.1,0-0.2-0.1-0.3-0.1l-0.3,0.3l-2.6,0.6c-0.5,0-1,0.1-1.5,0.1c-0.6,0.1-1.2,0-1.7-0.1h-0.9c-1.1,0-2.1-0.1-3.2-0.3
	c-0.6-0.2-1.2-0.4-1.7-0.6l-1.2-0.3l-0.6-0.3v-0.4l-0.6,0.3c-0.4-0.4-0.7-0.6-0.9-0.6l-0.3-0.3h-0.3V215c0,0.1-0.1,0.3-0.2,0.3
	c0,0,0,0-0.1,0c-0.1,0-0.3-0.1-0.3-0.2c0,0,0,0,0-0.1H241v-0.3l-0.9-0.3v-0.3c0-0.2-0.1-0.2-0.3,0h-0.3c-0.2,0-0.6-0.3-1.2-0.9V213
	c-0.2,0.2-0.5,0.1-0.9-0.3c-0.2-0.2-0.5-0.4-0.7-0.6c-0.3-0.2-0.7-0.4-1-0.6l-0.3-0.6c-0.1,0-0.3-0.1-0.3-0.2c0,0,0,0,0-0.1
	l-1.7-1.5c-0.2-0.2-0.4-0.5-0.6-0.7c-0.2-0.3-0.3-0.6-0.3-1h-0.3c-0.2,0-0.4-0.1-0.4-0.3c-0.1-0.2-0.3-0.4-0.4-0.6l0.3-0.3h-0.6
	c-0.3-0.7-0.7-1.4-1.2-2l-0.9-1.2l-0.6-0.6c-0.2-0.2-0.2-0.5,0-0.9c-0.3,0-0.5-0.2-0.6-0.4c0,0,0-0.1,0-0.1
	c-0.2-0.4-0.4-0.8-0.6-1.2c-0.2-0.4-0.5-0.8-0.9-1.2c0-0.3-0.1-0.6-0.3-0.9c-0.2,0-0.3-0.3-0.3-0.9c-0.2,0-0.2-0.1-0.1-0.3
	s0-0.3-0.1-0.3l-0.6-0.6v-0.6c-0.1,0-0.3-0.1-0.3-0.2c0,0,0-0.1,0-0.1v-0.3l-0.3-0.3l-0.9-2c0-0.2-0.1-0.5-0.1-0.7
	c-0.2-0.4-0.4-0.7-0.7-1v-0.9c-0.4-0.3-0.6-0.7-0.9-1.2l-0.6-1.2l-0.6-1.4l-0.6,0.3l-0.3,0.3c-0.3,0.5-0.7,1-1.2,1.4
	c-0.4,0.3-0.6,0.7-0.9,1.2c-0.4-0.2-0.6-0.1-0.6,0.3v0.3h-0.6v0.6c-0.1,0-0.3-0.1-0.3-0.2c0,0,0-0.1,0-0.1v0.9
	c-0.2,0-0.5,0.2-0.9,0.6l0,0c0,0.1-0.1,0.3-0.2,0.3c0,0,0,0-0.1,0c-0.2,0.6-0.6,1-1.2,1.2h-0.3c0,0.4-0.1,0.6-0.3,0.6v-0.3
	c-0.2,0.2-0.2,0.3-0.1,0.4s0,0.2-0.1,0.4h-0.6l-0.3,0.6h-0.3c-0.1,0-0.3,0.1-0.3,0.2c0,0,0,0,0,0.1v-0.3h0.3l-0.3,0.6l-0.6-0.3
	c0,0.2,0,0.3,0.1,0.4c0.1,0.1,0,0.2-0.1,0.4c0-0.1-0.1-0.3-0.2-0.3c0,0,0,0-0.1,0h0.3c-0.1,0-0.3,0.1-0.3,0.2c0,0,0,0,0,0.1
	l-0.3,0.6h-0.3l-0.6,0.6l0.3,0.3c-0.1-0.2-0.4-0.3-0.6-0.3c-0.1,0-0.3,0.1-0.3,0.2c0,0,0,0,0,0.1c0,0.4-0.1,0.6-0.3,0.6
	c0,0.3-0.2,0.5-0.4,0.6c-0.1,0-0.1,0-0.2,0c-0.4,0.4-0.7,0.6-0.9,0.6h0.3l-0.6,0.6l-1.4,1.4l0,0l-1.4,1.2c0,0.1-0.1,0.3-0.2,0.3
	c0,0,0,0-0.1,0l-0.6,0.6v0.3c-0.6,0-0.9,0.2-0.9,0.6l-1.2,1.2c-0.3,0.1-0.5,0.2-0.7,0.4c-0.3,0.3-0.5,0.3-0.7,0.1
	c0,0.6-0.4,0.9-1.2,0.9v0.6h-0.3c0,0.2-0.2,0.4-0.6,0.6c0-0.2-0.1-0.2-0.3,0l-0.6,0.6l-0.9,0.9h-0.9c0.2,0.1,0.2,0.3,0.1,0.5
	c0,0,0,0.1-0.1,0.1h-0.3l-0.3,0.6c0-0.1-0.1-0.3-0.2-0.3c0,0,0,0-0.1,0c0,0.3-0.2,0.5-0.4,0.6c-0.1,0-0.1,0-0.2,0l0,0
	c-0.2,0.6-0.8,1-1.4,0.9l-0.3,0.6c-0.2,0-0.5,0.2-0.9,0.6c-0.2,0.2-0.6,0.3-0.9,0.3v0.3h-0.3l-0.3-0.3l0.3,0.3v0.3l-0.6-0.3
	l-0.3,0.6c-0.2-0.2-0.5-0.2-0.9,0l0.6,0.3c-0.2,0.2-0.3,0.2-0.3,0c0-0.1-0.1-0.3-0.2-0.3c0,0,0,0-0.1,0l-0.3,0.9l-0.3-0.6l-0.3,0.9
	c-0.3,0.2-0.8,0.3-1.2,0.3v-0.3l-0.6,0.3v0.3c0,0.2-0.2,0.5-0.6,0.9h-0.6l-0.6,0.3h0.3c-0.1,0-0.3,0.1-0.3,0.2c0,0,0,0.1,0,0.1h-0.6
	c0,0.1-0.1,0.3-0.2,0.3c0,0,0,0-0.1,0c-0.2,0.2-0.5,0.3-0.7,0.4c-0.3,0.1-0.5,0.2-0.7,0.4l-1.2,0.6l-1.7,0.6l-3.8,2l-1.2,0.6
	c-0.6,0.1-1.2,0.3-1.7,0.6l-3.2,1.2h-0.6c-1.4,0.5-2.9,0.8-4.3,0.9c-1.2,0.2-2.5,0.3-3.8,0.3h-0.9c-2.4,0-4.8-0.1-7.2-0.3
	c-3.5-0.8-6.1-1.4-7.8-2l-2.3-1.2l-1.4-1.2l-1.2-0.9v-1.2c0.3-0.3,0.6-0.6,1-0.7c0.2-0.1,0.5-0.1,0.7-0.1l2.3-1.2l2.6-1.7
	c0.2,0,0.5-0.2,0.9-0.6h0.6c5-3.5,8.7-6.2,11-8.1c1.3-1,3.4-2.6,6.1-4.9l7.2-5.8l1.7-1.7c4-3.5,6.2-5.3,6.4-5.5l6.4-5.8l4-3.5
	l6.6-6.6l1.4-1.2l5.2-5.2c0.2-0.2,4.1-4.4,11.9-12.7c0.3-0.5,0.5-0.9,0.6-1.4l-0.9-8.4c0-1.5-0.1-2.9-0.3-4.3
	c0-2.7-0.2-6.5-0.6-11.6v-2.3H214.5z M185.8,215.6v-0.3h0.6v0.3H185.8z M197.7,206.6L197.7,206.6z M209.3,197.4l0.3,0.3
	c-0.2,0-0.3,0-0.3-0.1V197.4z M217.9,189.3L217.9,189.3z M244.8,216.2L244.8,216.2z M266.8,213.6l0.3,0.3c-0.4,0-0.6-0.1-0.6-0.3
	H266.8z M267.1,142.8h0.6v0.3c0,0.2,0,0.2-0.1,0.1L267.1,142.8z M267.4,202h-0.3c0.1,0,0.3,0.1,0.3,0.2c0,0,0,0,0,0.1V202z
	 M271.7,200h-0.3v-0.3c0,0.2,0,0.3,0.1,0.3H271.7z M276.6,135.3c0-0.1,0.1-0.3,0.2-0.3c0,0,0,0,0.1,0c-0.1,0-0.3,0-0.3,0.2
	C276.6,135.2,276.6,135.2,276.6,135.3L276.6,135.3z"/>
<path class="st0" d="M285.3,186.7l0.3-2.6c0.5-3.4,1.3-6.8,2.3-10.1c0.8-2.5,1.5-4.7,2.3-6.6c0.8-1.9,1.4-3.7,2-5.2
	c3.3-7.9,7.2-16.3,11.9-25.1c0.4-0.6,0.5-1,0.3-1.2c0-0.1,0.1-0.3,0.2-0.3c0,0,0,0,0.1,0c0.9-1.1,1.5-2.4,2-3.8
	c1.7-3.5,5.9-10.6,12.4-21.4l2.3-3.8l1.7-2.6l0.6-0.9l0.6-0.6c0.2-0.1,0.2-0.4,0.1-0.5c0,0,0,0-0.1-0.1l0.3-0.3l0.9-1.2
	c0-0.4,0.1-0.6,0.3-0.6l0.6-0.9l1.7-2.9c0.3-0.7,0.7-1.4,1.2-2l0.6-1.2l2.9-5.5l0.6-0.6c0.6-0.6,1-0.8,1.2-0.6l2.3-2.9l2.3-2.6
	l1.7-1.4c0.8-0.6,1.8-1.1,2.9-1.2c1.5,0.1,2.9,0.3,4.3,0.6l1.2,0.3h0.3c1,0.4,2.1,0.7,3.2,1c1.2,0.3,2.4,0.7,3.5,1.3l4.6,2.6
	c1.4,0.8,2.8,1.8,4,2.9l1.2,0.9c0.6,0.6,1.2,1.1,2,1.4c0.6,0.3,1.2,0.7,1.7,1.2c1.2,0.7,2.1,1.8,2.3,3.2c0,0.3,0.1,0.6,0.3,0.9
	c-0.4,0.4-0.6,0.9-0.6,1.4c-0.5,1.1-1.3,2-2.3,2.6l-0.9,1.2l-0.9,0.9l-2,2.6c-1.5,2.6-3.3,5-5.2,7.2l-9,11.9c-0.8,1-1.5,2-2,3.2
	c-0.6,1-1.1,1.8-1.6,2.6s-0.9,1.4-1.3,2l-0.3,0.6c-1.1,1.1-2.1,2.4-2.9,3.8c-2.3,3.5-3.9,6.1-4.9,7.8l-7.8,12.1
	c-3.1,5-5.5,8.8-7.2,11.3c-0.3,0.6-0.7,1.2-1.2,1.7l-0.3,0.3c-0.5,1.1-1.2,2.2-2,3.2c-1.6,2-2.8,4.3-3.8,6.6c-0.1,0-0.3,0.1-0.3,0.2
	c0,0,0,0,0,0.1l0.6-0.3c6.7-3.4,12.9-7.5,18.6-12.4l4.9-3.8c9.4-7.5,20.3-16.8,32.7-27.8l11-10.7c0.6-0.4,1.1-0.9,1.5-1.4
	c0.5-0.1,0.8-0.4,0.9-0.9l0.3-0.3c0-0.2,0.2-0.5,0.6-0.9c0.1,0,0.3-0.1,0.3-0.2c0,0,0,0,0-0.1l1.2-1.7h0.3l1.5,0.6v0.9l-0.3,1.4
	l-0.3,0.9c-0.2,0.8-0.5,1.6-0.9,2.3v0.3c0,0.1-0.1,0.3-0.2,0.3c0,0,0,0-0.1,0l-0.3,0.6c-0.2,0.2-0.2,0.3-0.1,0.4s0,0.1-0.1,0.1
	c-0.3,1-0.7,2-1.2,2.9h-0.3c0,0.5-0.2,1.1-0.6,1.4l0,0l-1.2,2c-0.1,0-0.3,0.1-0.3,0.2c0,0,0,0,0,0.1l-1.7,2.6
	c-0.2,0.8-0.7,1.4-1.4,1.7c-0.1,0-0.3,0.1-0.3,0.2c0,0,0,0,0,0.1c0,0.2-0.1,0.4-0.3,0.6l-0.6,0.6l-0.6,0.6c0,0.4-0.2,0.7-0.6,0.9
	c-0.1,0-0.3,0.1-0.3,0.2c0,0,0,0,0,0.1h0.3l-0.6,0.3c-0.2,0.2-0.3,0.4-0.4,0.7c-0.1,0.3-0.4,0.6-0.7,0.7l-0.9,1.4
	c-0.3,0-0.5,0.2-0.6,0.4c0,0.1,0,0.1,0,0.2c-0.6,0.6-1,0.9-1.2,0.9v0.3l-0.9,1.2l-0.6,0.6c-0.2,0.6-0.6,1-1.2,1.2
	c-0.3,0.8-0.8,1.5-1.5,2c-0.1,0-0.3,0.1-0.3,0.2c0,0,0,0,0,0.1l-0.3,0.3h-0.3c0.1,0,0.3,0.1,0.3,0.2c0,0,0,0,0,0.1
	c-0.1,0-0.3,0.1-0.3,0.2c0,0,0,0,0,0.1l-0.9,0.9l-0.6,0.6l0,0c-0.1,0.5-0.4,0.8-0.9,0.9v0.3c0,0.2-0.3,0.3-0.9,0.3
	c0,0.1,0.1,0.3,0.2,0.3c0,0,0.1,0,0.1,0l-0.6,0.6c-0.2,0.2-0.4,0.4-0.6,0.6c-0.3,0-0.5,0.2-0.6,0.4c0,0.1,0,0.1,0,0.2h-0.3
	c0,0.2,0,0.3,0.1,0.3s0.1-0.1,0.1-0.3l-0.6,0.6c0,0.2,0,0.4-0.1,0.6c-0.1,0.2-0.2,0.2-0.4,0l-0.3,0.6c-0.1,0-0.3,0.1-0.3,0.2
	c0,0,0,0,0,0.1c0,0.2-0.1,0.4-0.3,0.6l-0.6,0.6c-0.4,0.4-0.7,0.5-0.9,0.3v0.6l-0.6,0.3v0.3l-1.4,1.7H359c-0.4,0.3-0.7,0.7-0.9,1.2
	c0,0.1-0.1,0.3-0.2,0.3c0,0,0,0-0.1,0l-0.6,0.3v0.3l-0.9,1.2l-1.5,1.4l-0.6,0.3c0,0.1-0.1,0.3-0.2,0.3c0,0,0,0-0.1,0l-0.3,0.3
	c-0.2,0.5-0.6,0.8-1,1.2c-0.4,0.3-0.8,0.7-1,1.2c0,0.1-0.1,0.3-0.2,0.3c0,0,0,0-0.1,0l-0.6,0.3l-1.7,2.3c-0.4,0-0.6,0.1-0.6,0.3
	c-0.2,0-0.3,0.2-0.3,0.6c-0.8,0.4-1.4,1.1-1.7,2l-3.2,4l-0.6,0.6l-0.9,1.2l-2.3,2.9l-1.4,1.4l-1.2,1.2l-2.6,2.9
	c-0.5,0.7-1.1,1.4-1.7,2c-0.6,1-1.4,1.7-2.3,2.3l-1.2,1.4c-0.6,0.4-1.2,0.9-1.7,1.4l-2.3,2.3l-1.4,1.2l-2.3,1.7l-1.8,1.5l-2,1.4
	l-1.2,0.9c-0.8,0.4-1.5,0.8-2.2,1.2s-1.2,0.7-1.6,0.9c-0.5,0.1-0.9,0.3-1.3,0.6c-0.3,0.2-0.5,0.4-0.7,0.6l-3.2,1.2l-1.2,0.6
	c-0.4,0.3-0.9,0.4-1.4,0.3l-2.3,0.9h-0.3l-1.2-0.3c-1.6-0.3-3-0.9-4.3-1.7c-1-0.5-1.9-1.1-2.6-2l-2.6-2.3l-0.6-1.2
	c-0.8-0.8-1.5-1.8-2-2.9l-1.7-3.5c-0.9-1.6-1.4-3.4-1.7-5.2l-0.3-0.9L285.3,186.7z M292.2,204.6L292.2,204.6z M298.6,209.8
	c0,0.1,0.1,0.3,0.2,0.3c0,0,0,0,0.1,0C298.7,210.2,298.6,210.1,298.6,209.8C298.6,209.9,298.6,209.9,298.6,209.8L298.6,209.8z
	 M299.7,210.4L299.7,210.4z M309.3,208.7L309.3,208.7z M341.9,81.5L341.9,81.5z M354.7,164.5L354.7,164.5L354.7,164.5z M406.7,38.8
	l-0.6,0.6l-2.6,2.3l-1.5,1.1c0,0.1-0.1,0.3-0.2,0.3c0,0,0,0-0.1,0l-2,1.7h-0.3c-0.3,0.5-0.7,0.9-1.2,1.2c-0.3,0.1-0.6,0.3-0.9,0.6
	l-2,1.4l-0.9,0.6c-0.4,0-0.7,0.2-0.9,0.6c-0.6,0.4-1.3,0.7-2,0.9c0,0.4-0.2,0.7-0.6,0.7c-0.3,0.1-0.6,0.1-0.9,0.1
	c0,0.1,0.1,0.3,0.2,0.3c0,0,0.1,0,0.1,0l-0.9,0.6H389c-0.5,0.5-1.1,0.9-1.7,1.2c0,0.1-0.1,0.3-0.2,0.3c0,0,0,0-0.1,0
	c-0.2,0-0.4,0.1-0.6,0.3c-0.2,0-0.5,0.2-0.9,0.6c-0.3,0-0.6,0.1-0.9,0.3c-0.4,0.2-0.7,0.2-0.9,0c0,0.4-0.1,0.6-0.3,0.6l-0.5,0.2
	c-0.3,0.3-0.7,0.6-1.2,0.6c-0.3,0-0.6,0.1-0.9,0.3l-1.2,0.6h-0.3l-0.3,0.3c-0.5,0.3-1.1,0.5-1.7,0.6c-0.2,0-0.4,0-0.6,0.1
	c-0.2,0.1-0.4,0.3-0.6,0.4h-0.6c-0.2,0-0.2,0-0.1,0.2s0,0.1-0.1,0.1l-2,0.3c-0.3,0.2-0.8,0.3-1.2,0.3h-0.6c-0.2-0.2-0.5-0.2-0.7-0.1
	c-0.2,0.1-0.5,0.1-0.7-0.1l-0.3-0.3l-0.3,0.3c-0.3-0.2-0.8-0.3-1.2-0.3h-0.9l-0.3-0.6v0.3h-1.2c-0.4,0-0.6-0.1-0.6-0.3l-0.9-0.3
	c-0.6,0-0.9-0.2-0.9-0.6h-0.3c-0.4-0.2-0.6-0.4-0.6-0.6c0-0.2-0.1-0.4-0.3-0.6c-0.2-0.3-0.3-0.8-0.3-1.2c-0.1-1,0.1-2,0.6-2.9
	c0.6-1.7,1-2.8,1.2-3.2l0.9-1.7l0.9-1.7c0.2-0.4,1.1-1.9,2.6-4.6l1.2-2l1.7-3.2l0.3-0.6c0.5-0.5,0.9-1.1,1.2-1.7l0.9-1.4
	c0-0.1,0-0.3,0.2-0.3c0,0,0,0,0.1,0l0.3-0.9l1.7-2.6c0.5-0.5,0.9-1.1,1.2-1.7l1.4-2l0.9-1.2l2.9-3.2l1.7-2.6l0.9-1.2
	c0-0.4,0.2-0.9,0.6-1.2c1.1-1.5,2.8-2.4,4.6-2.6c0.3,0,0.6-0.1,0.9-0.3h2l0.3,0.3h2l3.2,0.6c0.4,0,0.9,0.1,1.3,0.3
	c0.4,0.2,0.9,0.3,1.3,0.3h0.3c0.5,0.4,1.1,0.6,1.7,0.6c0.4,0.4,0.7,0.6,0.9,0.6h0.9c0,0.2,0,0.3,0.1,0.4c0.1,0.1,0.2,0,0.4-0.1h0.6
	c0,0.1-0.1,0.3-0.2,0.3c0,0,0,0-0.1,0l0,0c0.1,0,0.3-0.1,0.3-0.2c0,0,0,0,0-0.1l0.9,0.6c0.3,0,0.6,0.1,0.9,0.3l0.6,0.3l1.2,0.3
	l0.6,0.6c0.3,0,0.6,0.1,0.9,0.3l0.6,0.3c0.1,0.2,0.4,0.3,0.6,0.3c0.2,0,0.4,0.2,0.6,0.6h0.3c0.2,0.2,0.6,0.3,0.9,0.3l-0.3,0.3
	c0,0.1,0.1,0.3,0.2,0.3c0,0,0,0,0.1,0c0.8,0,1.2,0.2,1.4,0.6l0.9,1.4c0.2,0.2,0.3,0.6,0.3,0.9h0.3v0.6c0,0.1-0.1,0.3-0.2,0.3
	c0,0,0,0-0.1,0l0.3,0.3V24h-0.3c-0.2,0.1-0.2,0.3-0.1,0.5c0,0,0,0.1,0.1,0.1v0.9h-0.3v1.2c-0.2,0.3-0.3,0.8-0.3,1.2
	c-0.1-0.2-0.3-0.2-0.5-0.1c0,0-0.1,0-0.1,0.1c0.2,0.3,0.1,0.7-0.1,1c-0.2,0.2-0.4,0.4-0.4,0.7h0.3c-0.6,0.2-1,0.8-0.9,1.4l-0.3-0.3
	c-0.3,1.2-1,2.2-2,2.9c-0.2,0.2-0.3,0.4-0.4,0.7c-0.1,0.3-0.2,0.4-0.4,0.4h-0.3c-0.1,0.5-0.5,1-0.9,1.3c-0.4,0.3-0.7,0.6-0.9,1h-0.3
	l0,0l-0.6,0.6l-0.9,0.9L406.7,38.8z M366.8,50L366.8,50z M372.6,58.7L372.6,58.7z M373.7,37.3L373.7,37.3h0.3l0.3-0.6l-0.3,0.6
	H373.7z M389.3,119.1L389.3,119.1z M392.8,47.4h-0.3c0,0.1-0.1,0.3-0.2,0.3c0,0,0,0-0.1,0c-0.1,0-0.3,0.1-0.3,0.2c0,0,0,0,0,0.1
	c-0.7,0.3-1.4,0.7-2,1.2c-0.1,0-0.3,0.1-0.3,0.2c0,0,0,0,0,0.1c0-0.1,0.1-0.3,0.2-0.3c0,0,0,0,0.1,0c0.5-0.1,0.9-0.3,1.3-0.6
	c0.3-0.2,0.5-0.4,0.7-0.6l0.3-0.3l0.3-0.3H392.8z M401.8,13.9L401.8,13.9z M405,15v0.3h0.3L405,15z M407,15.3L407,15.3z M410.2,17.1
	L410.2,17.1z M411,33.8L411,33.8z M414.2,20.8c0,0.1,0.1,0.3,0.2,0.3c0,0,0.1,0,0.1,0l0.3-0.3H414.2z M414.5,27.2
	c-0.1,0-0.3,0.1-0.3,0.2c0,0,0,0,0,0.1C414.3,27.5,414.5,27.4,414.5,27.2C414.5,27.2,414.5,27.2,414.5,27.2L414.5,27.2z"/>
<path class="st0" d="M352.3,173.2v-6.1c0.2-1.1,0.3-2.3,0.3-3.5c0.6-3.9,1.6-7.8,2.9-11.6l4.3-10.4c0.3-0.5,0.5-1.1,0.6-1.7
	c0-0.1,0.1-0.3,0.2-0.3c0,0,0,0,0.1,0c0.2-0.1,0.3-0.4,0.3-0.6c0-0.2,0.1-0.4,0.3-0.6v-0.3l0.6-0.6c-0.1,0-0.3-0.1-0.3-0.2
	c0,0,0-0.1,0-0.1h0.3V137l0.6-0.9c0-0.6,0.2-0.9,0.6-0.9c0-0.1-0.1-0.3-0.2-0.3c0,0,0,0-0.1,0c0.4-0.4,0.6-0.7,0.6-0.9
	c0.2-0.1,0.3-0.4,0.3-0.6c0-0.1,0.1-0.3,0.2-0.3c0,0,0,0,0.1,0c0.3-0.9,0.8-1.7,1.5-2.3h0.3v-0.3h-0.3c0.2,0,0.3-0.2,0.3-0.6
	c0.1,0,0.3-0.1,0.3-0.2c0,0,0,0,0-0.1c0-0.2,0.1-0.4,0.3-0.4s0.3-0.2,0.3-0.4c0.1,0,0.3-0.1,0.3-0.2c0,0,0,0,0-0.1V128h0.6l0.3-0.9
	c0.3-0.6,0.7-1.2,1.2-1.7l0.9-1.4c0.4-0.4,0.6-0.7,0.6-0.9l2.6-3.8l1.3-1.3c0.5-0.6,1-1.2,1.3-1.9c0-0.1,0.1-0.3,0.2-0.3
	c0,0,0,0,0.1,0c2.2-3.1,4.7-6,7.5-8.7l5.8-5.8c2-1.9,4.3-3.5,6.6-4.9c0.6-0.4,1.1-0.7,1.7-1c0.6-0.3,1.2-0.8,1.7-1.3h0.3
	c1.8-0.9,3.6-1.7,5.5-2.3c2.6-1,5.3-1.7,8.1-2h5.2c0.8,0.2,1.7,0.3,2.6,0.3l4.3,0.9l2.9,0.6l2.3,0.6c2.1,0.8,4.2,1.9,6.1,3.2h0.6
	c0.4,0,0.9,0.2,1.2,0.6h0.3c0.2,0.2,1.4,1.2,3.8,2.9l3.2,3.8c1.8,2.5,3.3,5.2,4.3,8.1l1.4,3.8l0.9,2v0.6l0.3,0.9v0.2
	c0,0.1-0.1,0.3-0.2,0.3c0,0,0,0-0.1,0c0.4,0.2,0.5,0.6,0.3,1.2c0.1,0,0.3,0.1,0.3,0.2c0,0,0,0,0,0.1v4.3h-0.3v1.4H452v0.6l-0.3,0.6
	l0,0v0.9l-0.3,0.9l-0.3,0.6l-0.3,0.6l-0.6,2l-1.2,3.2c0,0.4-0.2,0.9-0.6,1.2l-0.3,1.2c0,0.1-0.1,0.3-0.2,0.3c0,0,0,0-0.1,0l-0.6,1.2
	l-0.9,1.4v0.6c-0.1,0-0.3-0.1-0.3-0.2c0,0,0-0.1,0-0.1v0.3h0.3l-0.6,0.9c-0.1,0-0.3,0.1-0.3,0.2c0,0,0,0,0,0.1l-0.9,1.4l-0.3,0.3
	c0,0.2-0.2,0.5-0.6,0.9l-1.4,2.6l-1.2,1.7l-0.3,0.6c-0.3,0-0.5,0.2-0.6,0.4c0,0.1,0,0.1,0,0.2c0,0.1-0.1,0.3-0.2,0.3c0,0,0,0-0.1,0
	l-0.3,0.3l-0.3,0.6h-0.3v0.6l-0.6,0.3c0,0.3-0.1,0.6-0.3,0.9l-0.6,0.6l-0.3,0.6l-0.9,0.9l-1.2,1.4l-0.9,0.9l-2,1.7l-0.3,0.3
	c0,0.2-0.2,0.3-0.6,0.3v0.3c-0.2,0-0.5,0.2-0.9,0.6c-0.3,0.3-0.7,0.6-1.2,0.6v0.3l-0.6,0.3c0,0.2-0.2,0.3-0.6,0.3
	c0,0.1-0.1,0.3-0.2,0.3c0,0,0,0-0.1,0v0.3c-0.3,0-0.6,0.1-0.9,0.3l-1.2,0.6l-1.7,0.9c-1.3,0.6-2.6,1.1-3.8,1.4l-3.2,0.3H417v0.3
	h-0.9l-2,0.3l-2,0.3c-0.6,0-1.2-0.1-1.7-0.3l0,0h-1.7c-0.5,0-1-0.1-1.5-0.3l-2.6-0.6l-1.7-0.9c-1.4-0.6-2.8-1.4-4-2.3l-3.2-2.6
	c-0.4,0-0.9-0.2-1.2-0.6l-1.7-1.7L391,161c-1.8,3.6-3.2,7.4-4.3,11.3l-0.3,0.6l0.3,0.9c-0.3,0.7-0.5,1.5-0.6,2.3l-0.3,4.6
	c0.1,2,0.3,4.1,0.6,6.1l0.9,2l0.9,1.2c0.1,0,0.3,0.1,0.3,0.2c0,0,0,0,0,0.1l2.9,0.3l3.8-0.3c3.8-0.8,7.6-1.9,11.3-3.2
	c1.9-0.6,3.2-1,3.8-1.2l7.2-3.8l4.3-2.6l6.6-5.2c6-4.4,11.4-8.8,16.2-13c0.8-0.9,1.8-1.7,2.9-2.3c1-0.8,2.2-1.3,3.5-1.2
	c0.8,0.2,1.4,0.7,1.7,1.4c0.3,0.6,0.5,1.3,0.6,2c0.1,0,0.3,0.1,0.3,0.2c0,0,0,0,0,0.1c-0.3,1-0.7,2-1.2,2.9l-1.2,1.4l-3.5,5.2
	c-5.1,7.5-10.9,14.4-17.3,20.8c-3.5,3.4-7.3,6.5-11.2,9.3c-4.3,2.8-9,5.2-13.9,6.9c-4.3,1.5-8.8,2.3-13.3,2.3h-1.5
	c-1.6,0-3.3-0.1-4.9-0.3c-1.3-0.3-2.7-0.5-4-0.6l-1.7-0.9c-1.2-0.3-2.4-0.7-3.5-1.2c-2.9-1.7-5.7-3.5-8.4-5.5
	c-4.8-4-8.7-8.9-11.6-14.4c-2.1-3.9-3.4-8.3-3.8-12.7L352.3,173.2z M427.8,123.2l-2.3,0.6l-4.9,1.7l-0.6,0.3l-2,1.7
	c-2,1.2-3.7,2.8-5.2,4.6l-4.3,4.6c-2.7,2.6-5,5.5-6.9,8.7l-1.7,2.6c-0.2,0.5-0.1,1.1,0.3,1.4c1,1.2,2.5,1.7,4.6,1.7h2l5.8-1.7
	l4.6-2.6c1.3-1,2.1-1.5,2.3-1.7v-0.3c0.3,0,0.5-0.2,0.6-0.4c0-0.1,0-0.1,0-0.2l1.7-2.6l3.5-6.1c1.7-3.3,2.6-7,2.6-10.7V123.2z
	 M406.7,165.7L406.7,165.7z M436.1,154.1v0.3l0,0V154.1z M437.6,153.2L437.6,153.2z M438.8,152.1L438.8,152.1z M446.6,161.3
	L446.6,161.3z"/>
</svg>
