<?xml version="1.0" encoding="utf-8"?>
<!-- Generator: Adobe Illustrator 21.1.0, SVG Export Plug-In . SVG Version: 6.00 Build 0)  -->
<svg version="1.1" id="Layer_1" xmlns="http://www.w3.org/2000/svg" xmlns:xlink="http://www.w3.org/1999/xlink" x="0px" y="0px"
	 viewBox="0 0 485 485" style="enable-background:new 0 0 485 485;" xml:space="preserve">
<style type="text/css">
	.st0{fill:#FFFFFF;}
</style>
<g>
	<path class="st0" d="M85,341.5c28.6,18.3,62.6,29,99.1,29c118.9,0,183.9-98.5,183.9-183.9c0-2.8-0.1-5.6-0.2-8.4
		c12.6-9.1,23.6-20.5,32.2-33.5c-11.6,5.1-24,8.6-37.1,10.2c13.3-8,23.6-20.7,28.4-35.8c-12.5,7.4-26.3,12.8-41,15.7
		c-11.8-12.6-28.6-20.4-47.2-20.4c-35.7,0-64.6,28.9-64.6,64.6c0,5.1,0.6,10,1.7,14.7c-53.7-2.7-101.3-28.4-133.2-67.5
		c-5.6,9.5-8.8,20.6-8.8,32.5c0,22.4,11.4,42.2,28.7,53.8c-10.6-0.3-20.6-3.2-29.3-8.1c0,0.3,0,0.5,0,0.8
		c0,31.3,22.3,57.4,51.8,63.4c-5.4,1.5-11.1,2.3-17,2.3c-4.2,0-8.2-0.4-12.2-1.2c8.2,25.7,32.1,44.4,60.4,44.9
		c-22.1,17.3-50,27.7-80.3,27.7C95.2,342.4,90.1,342.1,85,341.5z"/>
	<path class="st0" d="M0,0v485h485V0H0z M455,455H30V30h425V455z"/>
</g>
</svg>
